<svg width="57" height="56" viewBox="0 0 57 56" fill="none" xmlns="http://www.w3.org/2000/svg">
<path opacity="0.2" d="M28.1757 33.0712C20.8429 33.0827 13.6375 31.155 7.2901 27.4835V45.2554C7.2901 45.484 7.33512 45.7104 7.42259 45.9215C7.51007 46.1327 7.63828 46.3246 7.79991 46.4862C7.96154 46.6479 8.15342 46.7761 8.3646 46.8636C8.57579 46.951 8.80213 46.996 9.03071 46.996H47.3241C47.5527 46.996 47.779 46.951 47.9902 46.8636C48.2014 46.7761 48.3933 46.6479 48.5549 46.4862C48.7165 46.3246 48.8447 46.1327 48.9322 45.9215C49.0197 45.7104 49.0647 45.484 49.0647 45.2554V27.4814C42.7165 31.1543 35.5098 33.0827 28.1757 33.0712V33.0712Z" fill="#F249C8"/>
<path d="M47.3241 15.665H9.03071C8.0694 15.665 7.2901 16.4443 7.2901 17.4056V45.2554C7.2901 46.2167 8.0694 46.996 9.03071 46.996H47.3241C48.2854 46.996 49.0647 46.2167 49.0647 45.2554V17.4056C49.0647 16.4443 48.2854 15.665 47.3241 15.665Z" stroke="#F249C8" stroke-width="2.9839" stroke-linecap="round" stroke-linejoin="round"/>
<path d="M36.8795 15.6656V12.1843C36.8795 11.2611 36.5127 10.3756 35.8599 9.72275C35.207 9.06989 34.3215 8.70313 33.3983 8.70312H22.9546C22.0313 8.70313 21.1459 9.06989 20.493 9.72275C19.8402 10.3756 19.4734 11.2611 19.4734 12.1843V15.6656" stroke="#F249C8" stroke-width="2.9839" stroke-linecap="round" stroke-linejoin="round"/>
<path d="M49.065 27.4814C42.7168 31.1542 35.5101 33.0827 28.176 33.0712C20.8431 33.0827 13.6376 31.1549 7.2901 27.4833" stroke="#F249C8" stroke-width="2.9839" stroke-linecap="round" stroke-linejoin="round"/>
<path d="M25.564 26.1094H30.7859" stroke="#F249C8" stroke-width="2.9839" stroke-linecap="round" stroke-linejoin="round"/>
</svg>
