<svg width="57" height="60" viewBox="0 0 57 60" fill="none" xmlns="http://www.w3.org/2000/svg">
<rect width="57" height="59.8422" rx="6" fill="#DAFAF7"/>
<g clip-path="url(#clip0_5251_9669)">
<path d="M33.2784 19.1499C33.3717 19.1966 33.5116 19.1033 33.5582 19.0101C33.5582 18.9634 33.5582 18.8702 33.5582 18.8235C33.5116 18.8235 33.465 18.7769 33.4183 18.7303C33.2784 18.6837 33.1386 18.637 32.952 18.5904C32.8588 18.5438 32.7655 18.5438 32.6256 18.5438C32.579 18.5438 32.4858 18.5438 32.4391 18.5438C32.2526 18.5904 32.1127 18.637 31.9729 18.7303C31.9262 18.7769 31.8329 18.8235 31.7863 18.8702C31.7397 18.9168 31.7397 18.9168 31.7397 18.9634C31.6931 19.0101 31.6931 19.0101 31.6931 19.0567C31.6464 19.1499 31.7397 19.2898 31.8329 19.2898C31.9262 19.3365 32.0195 19.2898 32.0661 19.1966L32.1127 19.1499C32.206 19.1033 32.2992 19.0567 32.3925 19.0101C32.4858 18.9634 32.579 18.9634 32.6256 18.9634C32.7189 18.9634 32.7655 18.9634 32.8588 18.9634C32.952 19.0567 33.0919 19.1033 33.2784 19.1499ZM38.5008 20.1758C38.5475 20.1758 38.5475 20.1292 38.5941 20.1292C38.6407 20.0825 38.7339 20.0825 38.7806 20.0359C38.8272 20.0359 38.8272 20.0359 38.8738 19.9892C38.9671 19.9426 39.0604 19.9426 39.1536 19.9426C39.2002 19.9426 39.2002 19.9426 39.2469 19.9426C39.2935 19.9426 39.3401 19.9892 39.3868 19.9892L39.4334 20.0359C39.48 20.0825 39.48 20.0825 39.48 20.1292C39.5267 20.1758 39.5267 20.2224 39.5733 20.3157C39.6199 20.4555 39.6199 20.5954 39.6665 20.7353C39.6665 20.8286 39.6665 20.9684 39.6665 21.0617C39.6665 21.155 39.7598 21.2949 39.853 21.2949C39.9463 21.2949 40.0862 21.2016 40.0862 21.1084C40.0862 20.8752 40.0862 20.6421 40.0396 20.4089C39.993 20.3157 39.993 20.2224 39.9463 20.1292C39.8997 20.0359 39.853 19.9892 39.8064 19.896C39.8064 19.8494 39.7598 19.8494 39.7131 19.8028C39.6665 19.7561 39.6665 19.7561 39.6199 19.7095C39.5733 19.6629 39.5267 19.6629 39.4334 19.6162C39.3401 19.5696 39.2469 19.5696 39.1536 19.5696C39.1536 19.5696 39.1536 19.5696 39.107 19.5696C39.0604 19.5696 38.9671 19.5696 38.9205 19.5696C38.8272 19.5696 38.7806 19.6162 38.6873 19.6162C38.5941 19.6629 38.5008 19.7095 38.4076 19.7561C38.3143 19.8028 38.2677 19.8494 38.221 19.9426C38.1744 20.0359 38.1744 20.1758 38.2677 20.2224C38.4076 20.1758 38.4542 20.1758 38.5008 20.1758ZM34.9104 15.7927C34.9571 15.7927 34.9571 15.7461 35.0037 15.7461C35.097 15.6994 35.1902 15.6994 35.2368 15.6528C35.2368 15.6528 35.2368 15.6528 35.1902 15.6528C35.3301 15.6062 35.47 15.5595 35.6099 15.5129C35.843 15.4663 35.9829 15.4663 36.1694 15.4663C36.2626 15.4663 36.3559 15.4663 36.4492 15.4663C36.5424 15.4663 36.6823 15.4663 36.7755 15.5129C36.8688 15.5129 36.9621 15.5595 37.0087 15.5595C37.102 15.6062 37.1952 15.6528 37.3351 15.6528C37.3817 15.6994 37.475 15.6994 37.5216 15.7461C37.6149 15.7927 37.6615 15.8393 37.7547 15.9326C37.848 16.0258 37.9413 16.1191 38.0346 16.2123C38.0812 16.259 38.1278 16.3056 38.1278 16.3522C38.1744 16.4455 38.3143 16.4921 38.4076 16.4455C38.5475 16.3989 38.5941 16.259 38.5475 16.1191C38.4542 15.9792 38.3609 15.8393 38.2677 15.6994C38.1278 15.6528 38.0346 15.5595 37.8947 15.4663C37.7547 15.373 37.6615 15.3264 37.5216 15.2331C37.3817 15.1399 37.1952 15.0933 37.0554 15.0466C36.8688 15 36.6823 15 36.4492 15C36.3093 15 36.216 15 36.0762 15C35.8896 15 35.7497 15.0466 35.5632 15.0933C35.4234 15.1399 35.2368 15.1865 35.097 15.2331C35.0037 15.2798 34.9104 15.3264 34.8172 15.373C34.7705 15.373 34.7705 15.4197 34.7239 15.4197C34.7239 15.4663 34.7239 15.4663 34.6773 15.4663C34.584 15.5595 34.584 15.6528 34.6773 15.7461C34.7239 15.8393 34.8638 15.8393 34.9104 15.7927ZM35.097 15.2331C35.1436 15.2331 35.1436 15.2331 35.097 15.2331V15.2331Z" fill="black"/>
<path d="M41.6248 23.5332C41.485 23.5332 41.3917 23.5798 41.3917 23.6731C41.3451 23.8596 41.2518 24.0461 41.1585 24.186C41.1119 24.2793 41.0653 24.3725 40.972 24.4657C40.8788 24.559 40.8321 24.6989 40.7389 24.7922C40.6923 24.8854 40.599 24.932 40.5524 24.9787C40.4591 25.0719 40.4125 25.1186 40.3192 25.1652C40.0395 25.3983 39.7131 25.5382 39.34 25.6781C39.2468 25.7247 39.1535 25.7247 39.0603 25.7714C38.967 25.818 38.8738 25.818 38.7339 25.8646C38.5474 25.9113 38.3142 25.9113 38.1277 25.9579C38.0811 25.9579 38.0811 25.9579 38.0345 25.9579H38.0811C38.0345 25.9579 37.9878 25.9579 37.9412 25.9579C37.8946 25.9579 37.8479 26.0045 37.8479 26.0511C37.8479 26.0978 37.8479 26.1444 37.8479 26.191C37.8479 26.2377 37.8946 26.2843 37.9412 26.2843C38.0345 26.2843 38.0811 26.2843 38.1743 26.2843C38.2676 26.2843 38.4075 26.2843 38.5007 26.2843C38.6872 26.2843 38.8738 26.2377 39.0603 26.191C39.2468 26.1444 39.4333 26.0978 39.6198 26.0045C39.8063 25.9113 39.9929 25.818 40.1793 25.7247C40.3659 25.6315 40.5058 25.5382 40.6456 25.3983C40.7389 25.3051 40.7855 25.2585 40.8788 25.1652C40.9721 25.0719 41.0187 24.9787 41.1119 24.8854C41.3917 24.5124 41.5782 24.0927 41.7181 23.6731C41.8113 23.7197 41.7181 23.5798 41.6248 23.5332ZM26.1442 28.5691C26.1442 28.1961 26.1442 27.823 26.0976 27.45C26.0976 27.3568 26.051 27.2635 26.051 27.1236C26.051 27.0769 26.0043 26.9837 26.0043 26.9371C25.9577 26.8905 25.911 26.7972 25.8644 26.7506C25.8178 26.7039 25.7245 26.6573 25.6779 26.6107C25.6313 26.6107 25.6313 26.564 25.5847 26.564C25.538 26.5174 25.4448 26.5174 25.3981 26.4708C25.3049 26.4242 25.165 26.4242 25.0718 26.3775C24.8852 26.3309 24.6987 26.3309 24.5588 26.2843C24.3257 26.2377 24.0926 26.2377 23.906 26.191C23.0667 26.0978 22.2274 26.0511 21.3881 26.0511C21.155 26.0511 20.9684 26.0511 20.7353 26.0511C20.5022 26.0511 20.2224 26.0511 19.9892 26.0511C19.523 26.0511 19.0567 26.0511 18.5904 26.0978C18.1241 26.0978 17.6578 26.1444 17.2382 26.191C16.7719 26.2377 16.3056 26.2843 15.8393 26.3309C15.7927 26.3309 15.7927 26.3309 15.7461 26.3309C15.6994 26.3309 15.6528 26.3775 15.6062 26.4242C15.5595 26.4708 15.5129 26.564 15.5129 26.6573C15.5129 26.7506 15.5595 26.8438 15.6062 26.8905C15.6528 26.9371 15.6994 26.9837 15.7461 26.9837C15.7927 26.9837 15.8859 26.9837 15.9326 26.9837C16.1657 26.9371 16.3989 26.8905 16.6786 26.8905C17.8443 26.7506 19.0567 26.6573 20.2224 26.6573C20.8285 26.6573 21.4814 26.6573 22.1342 26.6573C22.7403 26.6573 23.3931 26.7039 23.9993 26.7972C24.2324 26.8438 24.4656 26.8438 24.6521 26.8905C24.8386 26.9371 25.0251 26.9837 25.2116 27.0769C25.2582 27.0769 25.3049 27.1236 25.3515 27.1702C25.3981 27.2635 25.3981 27.4034 25.4448 27.5432C25.538 28.2893 25.5847 29.0354 25.5847 29.7814C25.6313 30.5741 25.6313 31.3668 25.6313 32.1595C25.6313 33.7915 25.538 35.4235 25.4448 37.0089C25.3981 38.0347 25.3515 39.0605 25.3049 40.133C25.3049 40.6459 25.3049 41.1588 25.3049 41.6717C25.3049 42.1847 25.3049 42.6976 25.2116 43.1639C25.2116 43.2105 25.2116 43.2571 25.165 43.3037C25.165 43.397 25.1184 43.4903 25.0718 43.5835C25.0718 43.6302 25.0251 43.6302 25.0251 43.6768C24.8852 43.7234 24.7453 43.77 24.5588 43.77C24.3723 43.8166 24.1858 43.8166 23.9993 43.8633C23.9527 43.8633 23.906 43.8633 23.8594 43.8633C23.9993 43.7234 24.1392 43.5835 24.279 43.4436C24.3723 43.3503 24.3723 43.2571 24.279 43.1639C24.2324 43.1172 24.1858 43.1172 24.1392 43.1172C24.0926 43.1172 24.0459 43.1172 23.9993 43.1639C23.8128 43.3037 23.6729 43.4903 23.4864 43.6302C23.3931 43.7234 23.2998 43.8166 23.2066 43.9099C22.8802 43.9565 22.5538 44.0032 22.274 44.0032C22.3673 43.9099 22.5072 43.8633 22.6005 43.77C22.6937 43.7234 22.6937 43.5835 22.6471 43.5369C22.6005 43.4903 22.6005 43.4436 22.5538 43.4436H22.5072C22.4605 43.4436 22.4605 43.4436 22.4139 43.4436C22.2274 43.5835 22.0409 43.7234 21.8544 43.8633L21.8077 43.9099C21.7611 43.9565 21.7145 44.0032 21.7145 44.0498C21.3414 44.0964 21.0151 44.0964 20.6421 44.0964C20.7819 44.0032 20.9684 43.8633 21.1083 43.77C21.155 43.7234 21.2016 43.7234 21.2016 43.6302C21.2016 43.5835 21.2016 43.5369 21.2016 43.4903C21.155 43.4436 21.1083 43.397 21.0617 43.397H21.0151C20.9684 43.397 20.9684 43.397 20.9218 43.4436C20.6421 43.6302 20.4089 43.8166 20.1291 44.0032C20.0825 44.0032 20.0825 44.0498 20.0359 44.0498C19.9426 44.1431 19.9426 44.1897 19.9426 44.2363C19.5696 44.2363 19.1966 44.2829 18.7769 44.2829C18.8235 44.2363 18.9168 44.1897 18.9634 44.1431C19.1033 44.0498 19.2432 43.9565 19.3831 43.8633C19.4297 43.8166 19.4763 43.8166 19.4763 43.77C19.523 43.7234 19.5696 43.7234 19.5696 43.6302C19.5696 43.5835 19.5696 43.5369 19.5696 43.4903C19.523 43.4436 19.523 43.397 19.4297 43.397H19.3831C19.3364 43.397 19.3364 43.397 19.2898 43.4436C19.1033 43.5835 18.9168 43.7234 18.7303 43.8166C18.637 43.8633 18.5904 43.9099 18.5438 44.0032C18.4971 44.0498 18.4505 44.0964 18.3572 44.1431C18.3106 44.1897 18.3106 44.2829 18.3106 44.3295C17.9376 44.3295 17.5646 44.3296 17.1915 44.2829C17.2382 44.2363 17.2382 44.2363 17.2848 44.1897C17.3314 44.1431 17.4247 44.0964 17.4713 44.0498C17.6112 43.9565 17.7511 43.8166 17.891 43.7234C17.9842 43.6302 17.9842 43.4903 17.891 43.4436C17.8443 43.397 17.7977 43.397 17.7511 43.397C17.7044 43.397 17.6578 43.397 17.6112 43.4436C17.4713 43.5369 17.3314 43.6768 17.1915 43.77C17.1449 43.8166 17.0516 43.8633 17.005 43.9565C16.9584 44.0032 16.9118 44.0032 16.8651 44.0498C16.8185 44.0964 16.8185 44.1431 16.8185 44.1897C16.8185 44.2363 16.8185 44.2829 16.8651 44.2829C16.7719 44.2829 16.6786 44.2829 16.5854 44.2829C16.3522 44.2363 16.1657 44.1897 15.9326 44.1431C16.1191 43.9565 16.2123 43.9099 16.3056 43.8166C16.4921 43.6768 16.632 43.4903 16.8185 43.3037C16.9118 43.2105 16.9118 43.0706 16.8185 43.024C16.7719 42.9773 16.6786 42.9307 16.632 42.9307C16.5854 42.9307 16.5387 42.9307 16.4921 42.9773C16.3056 43.1639 16.1191 43.3503 15.9326 43.5369C15.8393 43.6302 15.7927 43.6768 15.7461 43.77C15.7461 43.4903 15.7461 43.2571 15.7461 42.9773C15.7927 42.9307 15.8393 42.8841 15.8859 42.8841C15.9792 42.7908 16.0258 42.7442 16.1191 42.6509C16.3056 42.4644 16.4921 42.2779 16.632 42.0914C16.7253 41.9981 16.7253 41.9049 16.632 41.8116C16.5854 41.765 16.5387 41.765 16.4921 41.765C16.4455 41.765 16.3989 41.765 16.3522 41.8116C16.1657 41.9981 15.9792 42.1847 15.8393 42.3711C15.7927 42.3711 15.7461 42.3711 15.7461 42.4178C15.7461 42.0914 15.7461 41.765 15.7461 41.392C15.7461 41.3453 15.7461 41.2987 15.7461 41.2521C15.7927 41.2521 15.8393 41.2521 15.8859 41.2054C15.9792 41.1122 16.0725 41.0189 16.1191 40.9723C16.259 40.8324 16.3989 40.6925 16.5387 40.5527C16.632 40.4594 16.632 40.3195 16.5387 40.2729C16.4921 40.2262 16.4455 40.1796 16.3989 40.1796C16.3522 40.1796 16.3056 40.1796 16.259 40.2262C16.1191 40.3661 15.9792 40.506 15.8859 40.5993C15.8393 40.6459 15.8393 40.6925 15.7927 40.6925C15.7927 40.0864 15.8393 39.5268 15.8393 38.9206C15.8859 37.242 15.8393 35.5634 15.7927 33.9314C15.7461 32.8123 15.6528 31.6932 15.6062 30.5741C15.5595 30.0146 15.5595 29.4084 15.5129 28.8489C15.5129 28.5691 15.4663 28.2893 15.4663 28.0095C15.4197 27.7298 15.4197 27.45 15.373 27.1702C15.373 27.1236 15.373 27.0769 15.373 26.9837C15.373 26.8905 15.2798 26.7972 15.1865 26.7972C15.0933 26.7972 15 26.8905 15 26.9837C15 27.0303 15 27.1236 15 27.1702C15 27.2169 15 27.2635 15 27.3101C15 27.3568 15 27.4034 15 27.4034C15 27.6365 15 27.8697 15 28.0561C15.0466 28.4758 15.0466 28.8955 15.0933 29.2685C15.1399 30.0612 15.2331 30.8539 15.2331 31.6932C15.2331 32.719 15.2331 33.605 15.2798 34.4443C15.3264 35.237 15.3264 36.0297 15.3264 36.8223C15.3264 37.6617 15.3264 38.501 15.2798 39.2936C15.2331 40.0864 15.1865 40.9257 15.1865 41.7184C15.1865 42.138 15.1399 42.5111 15.1399 42.9307C15.1399 43.1172 15.1399 43.3037 15.0933 43.5369C15.0933 43.6302 15.0933 43.77 15.0933 43.8633C15.0933 44.0964 15.2331 44.3296 15.4197 44.4694C15.4663 44.5161 15.4663 44.5161 15.5129 44.5627C15.5595 44.6094 15.6062 44.6094 15.6528 44.6094C15.7461 44.656 15.7927 44.656 15.8859 44.7026C16.0258 44.7492 16.1657 44.7492 16.3056 44.7958C16.5387 44.8425 16.7253 44.8425 16.9584 44.8425C17.3314 44.8425 17.7511 44.8425 18.1241 44.8425C18.9168 44.8425 19.7561 44.7958 20.5488 44.7492C21.3414 44.7026 22.1342 44.7026 22.9268 44.656C23.2998 44.656 23.6729 44.6094 24.0459 44.5627C24.4189 44.5161 24.792 44.5161 25.165 44.4228C25.3049 44.3762 25.4448 44.3295 25.538 44.2363C25.5847 44.1897 25.6313 44.0964 25.6779 44.0032C25.7245 43.9099 25.7712 43.77 25.7712 43.6768C25.7712 43.5835 25.8178 43.4903 25.8178 43.397C25.8178 43.2571 25.8178 43.1639 25.8644 43.024C25.911 42.6043 25.8644 42.2313 25.8644 41.8116C25.8644 41.0189 25.8644 40.2262 25.911 39.3869C25.9577 38.5476 26.0043 37.7083 26.051 36.869C26.0976 36.0763 26.1442 35.3302 26.1908 34.5376C26.2374 33.7449 26.2841 32.9056 26.2841 32.1128C26.2841 31.3202 26.2841 30.5275 26.2841 29.7348C26.1442 29.3618 26.1442 28.9421 26.1442 28.5691Z" fill="black"/>
<path d="M17.0975 30.6212C17.0975 30.2482 17.1441 29.9218 17.1908 29.5954C17.1908 29.5021 17.2374 29.4089 17.2374 29.3156C17.2374 29.2223 17.2374 29.1291 17.1908 29.0358C17.1441 28.9426 17.0975 28.896 17.0042 28.896C16.911 28.896 16.8177 28.896 16.7245 28.9426C16.6312 28.9892 16.5846 29.0825 16.5846 29.1291C16.538 29.3156 16.538 29.5488 16.538 29.7353C16.538 29.9218 16.4913 30.1083 16.4913 30.2948C16.4913 30.6678 16.4913 31.0409 16.4913 31.4139C16.4913 32.1599 16.538 32.9527 16.5846 33.6987C16.6312 34.4914 16.6778 35.2374 16.7245 36.0302C16.7711 36.4032 16.7711 36.7762 16.8177 37.1492C16.8644 37.5223 16.8644 37.8953 16.911 38.2683C16.911 38.4548 16.9576 38.6414 17.0042 38.8278C17.0509 38.9677 17.0975 39.1076 17.1441 39.2009C17.1441 39.2475 17.1908 39.2941 17.2374 39.3408C17.3306 39.3874 17.3773 39.434 17.4705 39.4807C17.7969 39.6206 18.17 39.5739 18.4964 39.5273C19.289 39.434 20.0351 39.434 20.8278 39.2941C21.2008 39.2475 21.5272 39.2009 21.9002 39.1076C22.0868 39.061 22.2266 39.0144 22.4131 39.0144C22.5997 38.9677 22.7862 38.9211 22.9727 38.9211C23.066 38.9211 23.1592 38.8745 23.2524 38.8278C23.2991 38.8278 23.3457 38.7812 23.3923 38.7812C23.439 38.7346 23.4856 38.7346 23.5789 38.688C23.6721 38.6414 23.7187 38.5947 23.7654 38.5481C23.812 38.5015 23.8586 38.4082 23.9052 38.3149C23.9519 38.2217 23.9519 38.1751 23.9519 38.0818C23.9519 37.9886 23.9519 37.8953 23.9519 37.802C23.9519 37.429 23.9985 37.056 23.9985 36.6829C23.9985 36.3099 23.9985 35.9369 23.9985 35.5639C23.9985 35.1908 23.9985 34.7711 23.9985 34.3981C24.0452 33.6055 24.0918 32.8128 24.1384 32.0201C24.185 31.647 24.185 31.2274 24.2316 30.8544C24.2783 30.4813 24.2783 30.1083 24.2783 29.6886C24.2783 29.5021 24.2783 29.3156 24.2783 29.1291C24.2783 29.0358 24.2783 28.9426 24.2783 28.8493C24.2783 28.7561 24.2783 28.7094 24.2783 28.6628C24.2783 28.5229 24.2316 28.4297 24.185 28.3364C24.185 28.3364 24.185 28.2898 24.1384 28.2898C24.0918 28.2432 24.0918 28.1965 24.0452 28.1965C23.9985 28.1499 23.9052 28.1033 23.8586 28.1033C23.7654 28.0566 23.6255 28.0566 23.5322 28.1033C23.3457 28.1033 23.2058 28.1499 23.0193 28.1499C21.9935 28.1965 21.0143 28.1965 19.9885 28.1965C19.4756 28.1965 18.9626 28.1965 18.4964 28.1499C18.2632 28.1499 17.9834 28.1499 17.7503 28.1033C17.6104 28.1033 17.5172 28.1033 17.3773 28.1033C17.3306 28.1033 17.284 28.1033 17.1908 28.1033C17.1441 28.1033 17.0975 28.1033 17.0509 28.1033C17.1441 28.0566 17.1441 28.0566 17.1441 28.0566C17.0509 28.0566 16.9576 28.1033 16.911 28.1965C16.8644 28.2898 16.9576 28.4297 17.0509 28.4297C17.0975 28.4297 17.1441 28.4297 17.1908 28.4297C17.3306 28.4297 17.4239 28.4763 17.5638 28.4763C17.7037 28.4763 17.8436 28.4763 17.9834 28.4763C18.2632 28.4763 18.543 28.4763 18.8228 28.5229C19.3823 28.5695 19.9885 28.5695 20.548 28.6162C21.1076 28.6628 21.6671 28.7094 22.2266 28.7094C22.5064 28.7094 22.7862 28.7094 23.0193 28.7094C23.1592 28.7094 23.2524 28.7094 23.3923 28.7094C23.4856 28.7094 23.5789 28.7094 23.6721 28.7094C23.7187 28.8027 23.7187 28.896 23.7654 28.9892C23.8586 29.6886 23.812 30.4347 23.7654 31.1341C23.7187 31.5072 23.7187 31.8802 23.6721 32.2532C23.6255 32.6262 23.6255 32.9993 23.5789 33.3257C23.5322 34.0717 23.4856 34.8178 23.439 35.5639C23.439 35.9369 23.439 36.2633 23.3923 36.6363C23.3923 36.9627 23.3457 37.3357 23.2991 37.6621C23.2991 37.802 23.2524 37.9419 23.2058 38.0352C23.2058 38.0352 23.1592 38.0352 23.1592 38.0818C23.1126 38.1284 23.066 38.1284 23.0193 38.1751C22.9727 38.1751 22.9727 38.2217 22.9261 38.2217C22.3199 38.4548 21.7137 38.5481 21.0609 38.6414C21.1542 38.5947 21.2008 38.5481 21.294 38.4548C21.5739 38.2683 21.807 38.0352 22.0868 37.8486C22.1334 37.802 22.1334 37.7554 22.1334 37.7088C22.1334 37.6621 22.1334 37.6155 22.0868 37.5689C22.0401 37.5223 21.9935 37.5223 21.9469 37.5223C21.9002 37.5223 21.8536 37.5223 21.807 37.5689C21.4806 37.802 21.1542 38.0818 20.8278 38.3149C20.7345 38.4082 20.6413 38.4548 20.548 38.5481C20.5014 38.5481 20.4548 38.5947 20.4548 38.5947C20.4081 38.7346 20.4081 38.7346 20.3615 38.7812C20.0351 38.8278 19.7087 38.8278 19.3823 38.8745C19.4756 38.7812 19.6154 38.688 19.7087 38.5947C19.9885 38.3616 20.2216 38.1751 20.5014 37.9886C20.5947 37.9419 20.5947 37.802 20.5014 37.7088C20.4548 37.6621 20.4081 37.6621 20.3615 37.6621C20.3148 37.6621 20.2682 37.6621 20.2216 37.7088C19.9418 37.8953 19.7087 38.1284 19.4289 38.3149C19.3357 38.4082 19.1958 38.5015 19.1025 38.5947C19.0559 38.6414 19.0093 38.688 18.9626 38.7346C18.916 38.7812 18.916 38.7812 18.8694 38.8278C18.8228 38.8745 18.8228 38.9211 18.8228 38.9677C18.7295 38.9677 18.6362 38.9677 18.543 38.9677C18.3098 38.9677 18.1233 38.9677 17.8902 38.9677C17.8902 38.9677 17.9368 38.9677 17.9368 38.9211C18.0301 38.8278 18.17 38.7346 18.2632 38.5947C18.543 38.3616 18.8228 38.0818 19.0559 37.8486C19.1492 37.7554 19.1492 37.6621 19.0559 37.5689C19.0093 37.5223 18.9626 37.5223 18.916 37.5223C18.8694 37.5223 18.8228 37.5223 18.7761 37.5689C18.4964 37.802 18.2166 38.0818 17.9368 38.3149C17.8436 38.4082 17.7037 38.5481 17.5638 38.6414C17.5172 38.688 17.5172 38.688 17.4705 38.7346C17.3773 38.5015 17.3306 38.2683 17.284 38.0352C17.284 38.0352 17.284 38.0352 17.284 37.9886C17.3306 37.9886 17.3773 37.9886 17.4239 37.9419C17.4705 37.8486 17.5638 37.802 17.657 37.7554C17.7503 37.6621 17.8902 37.5689 17.9834 37.429C18.2166 37.2425 18.4031 37.0094 18.6362 36.8228C18.7295 36.7296 18.7295 36.5897 18.6362 36.5431C18.5896 36.4964 18.543 36.4964 18.4964 36.4964C18.4497 36.4964 18.4031 36.4964 18.3565 36.5431C18.1233 36.7296 17.9368 36.9161 17.7037 37.1492C17.6104 37.2425 17.5172 37.3357 17.3773 37.429C17.3306 37.4756 17.284 37.5223 17.2374 37.5689C17.1908 37.1492 17.1441 36.7762 17.1441 36.3565C17.1441 36.3565 17.1441 36.4032 17.1908 36.4032C17.2374 36.4498 17.284 36.4498 17.3306 36.4498C17.3773 36.4498 17.4239 36.4032 17.4239 36.4032C17.5638 36.2633 17.7037 36.1234 17.8436 36.0302C18.0301 35.8436 18.2166 35.6571 18.4497 35.5172C18.543 35.424 18.543 35.2841 18.4497 35.2374C18.4031 35.1908 18.3565 35.1908 18.3098 35.1908C18.2632 35.1908 18.2166 35.1908 18.17 35.2374C17.9834 35.424 17.7503 35.5639 17.5638 35.7503C17.4705 35.8436 17.4239 35.8902 17.3306 35.9835C17.284 36.0302 17.1908 36.1234 17.1441 36.17C17.1441 36.0768 17.1441 36.0302 17.1441 35.9835C17.1441 35.797 17.1441 35.5639 17.0975 35.3773C17.1441 35.3773 17.1441 35.3773 17.1908 35.3307C17.3306 35.1908 17.4705 35.051 17.6104 34.9111C17.7969 34.7245 18.0301 34.538 18.2166 34.3515C18.3098 34.2582 18.3098 34.1184 18.2166 34.0717C18.17 34.0251 18.1233 34.0251 18.0767 34.0251C18.0301 34.0251 17.9834 34.0251 17.9368 34.0717C17.7503 34.2582 17.5638 34.3981 17.3773 34.5847C17.284 34.6779 17.1908 34.7711 17.1441 34.8178L17.0975 34.8644C17.1441 34.4914 17.1441 34.165 17.1441 33.8852H17.1908C17.284 33.7919 17.3773 33.6987 17.4705 33.6055C17.6104 33.4656 17.7969 33.3257 17.9368 33.1858C18.0301 33.0925 18.0301 32.9527 17.9368 32.906C17.8902 32.8594 17.8436 32.8594 17.7969 32.8594C17.7503 32.8594 17.7037 32.8594 17.657 32.906C17.5172 33.0459 17.3306 33.1858 17.1908 33.3257C17.1441 33.3723 17.1441 33.3723 17.0975 33.4189C17.0975 32.9993 17.0509 32.5796 17.0509 32.1599C17.0975 32.2532 17.2374 32.2532 17.3306 32.1599C17.3773 32.1133 17.4239 32.0667 17.4705 32.0667C17.5172 32.0201 17.6104 31.9735 17.657 31.9268C17.7037 31.8802 17.7503 31.8802 17.7503 31.8336C17.7503 31.7869 17.7503 31.7403 17.7503 31.6937C17.7037 31.647 17.7037 31.6004 17.657 31.6004H17.6104C17.5638 31.6004 17.5172 31.6004 17.4705 31.647C17.3773 31.6937 17.284 31.7869 17.2374 31.8336C17.1908 31.7869 17.1441 31.7869 17.0975 31.8336C17.0975 31.8336 17.0975 31.8336 17.0975 31.8802C17.0975 31.7869 17.0975 31.6937 17.0975 31.6004C17.0975 31.274 17.0509 30.9476 17.0975 30.6212ZM17.5638 36.3099C17.5172 36.3099 17.5172 36.3099 17.5638 36.3099V36.3099ZM21.4806 40.8795L21.4339 40.8329C21.3873 40.7863 21.3407 40.7863 21.294 40.7396C21.2008 40.693 21.1542 40.693 21.0609 40.6464C21.0143 40.6464 20.921 40.6464 20.8744 40.6464C20.8278 40.6464 20.7811 40.6464 20.7345 40.6464C20.6413 40.6464 20.548 40.693 20.4548 40.693C20.3615 40.7396 20.3148 40.7396 20.2216 40.7863L20.175 40.8329C20.1284 40.8795 20.1284 40.9261 20.0817 40.9261C20.0817 40.9728 20.0351 40.9728 20.0351 41.0194C19.9418 40.9728 19.8486 41.0194 19.7553 41.066C19.6621 41.1127 19.6154 41.2059 19.5688 41.2525C19.5222 41.2992 19.4756 41.3924 19.4289 41.439C19.3823 41.5323 19.3357 41.6256 19.289 41.7188C19.2424 41.8121 19.1958 41.952 19.1958 42.0452C19.1958 42.1385 19.1958 42.2784 19.1958 42.3716C19.1958 42.4182 19.1958 42.4649 19.1958 42.4649C19.1958 42.5115 19.2424 42.5582 19.289 42.6514C19.3357 42.7447 19.3823 42.7913 19.4756 42.8845C19.5222 42.9312 19.5688 42.9778 19.6154 42.9778C19.6621 43.0244 19.7553 43.0711 19.8019 43.0711C19.9885 43.1643 20.175 43.1643 20.3615 43.1643C20.4547 43.1643 20.548 43.1643 20.6413 43.1177C20.7345 43.1177 20.8278 43.0244 20.921 43.0244C20.9677 43.0244 20.9677 42.9778 21.0143 42.9778C21.0609 42.9312 21.1076 42.8845 21.1542 42.8379C21.2008 42.7913 21.2474 42.7447 21.294 42.6514C21.3407 42.5582 21.3873 42.4649 21.4339 42.4182C21.5272 42.2784 21.5739 42.0919 21.6205 41.952C21.6671 41.8587 21.6671 41.7188 21.7137 41.6256C21.7137 41.5323 21.7603 41.439 21.7603 41.3458C21.7603 41.2992 21.7603 41.2525 21.7137 41.1593C21.7137 41.1127 21.6671 41.066 21.6671 41.0194C21.5739 41.0194 21.5272 40.9728 21.4806 40.8795ZM20.3615 41.2992C20.3148 41.2992 20.3148 41.2992 20.3615 41.2992V41.2992ZM19.7553 42.3716C19.7553 42.325 19.7553 42.325 19.7553 42.3716V42.3716ZM21.0609 41.6722C21.0609 41.7655 21.0143 41.8587 20.9677 41.9986C20.921 42.1385 20.8278 42.2784 20.7345 42.3716C20.6879 42.4182 20.6413 42.4649 20.5947 42.5582C20.548 42.6048 20.548 42.6048 20.5014 42.6514C20.4548 42.6514 20.4081 42.6981 20.4081 42.6981H20.3615C20.3148 42.6981 20.2682 42.6981 20.2216 42.6981C20.175 42.6981 20.1284 42.6981 20.0817 42.6514C20.0351 42.6514 19.9885 42.6048 19.9418 42.5582C19.8952 42.5115 19.8952 42.5115 19.8486 42.4649L19.8019 42.4182C19.8019 42.3716 19.8019 42.3716 19.7553 42.325C19.7553 42.2784 19.7553 42.2318 19.7553 42.1851C19.7553 42.1385 19.8019 42.0452 19.8019 41.9986C19.8019 41.952 19.8486 41.9053 19.8952 41.8587C19.9418 41.8121 19.9418 41.7655 19.9885 41.7188C20.0351 41.6722 20.0817 41.6256 20.1284 41.579L20.175 41.5323C20.2216 41.5323 20.2682 41.4857 20.3148 41.439C20.3615 41.439 20.4081 41.439 20.4081 41.3924C20.5014 41.3458 20.5947 41.3458 20.6879 41.2992C20.7345 41.2992 20.7811 41.2992 20.8278 41.2992C20.8744 41.2992 20.921 41.2992 20.9677 41.3458C20.9677 41.3458 21.0143 41.3458 21.0143 41.3924C21.0143 41.3924 21.0143 41.3924 21.0609 41.439C21.0609 41.439 21.0609 41.4857 21.1076 41.4857V41.5323V41.579C21.1076 41.579 21.0609 41.6256 21.0609 41.6722Z" fill="black"/>
<path d="M30.3872 25.678C30.527 25.7713 30.6669 25.8179 30.8068 25.8646C30.9001 25.9112 30.9467 25.9112 31.0399 25.9578C31.1332 26.0044 31.2264 26.051 31.3197 26.051C31.413 26.0977 31.5528 26.0977 31.6461 26.1443C31.7393 26.191 31.8793 26.191 31.9725 26.2376C32.0657 26.2376 32.159 26.2842 32.2523 26.2842C32.3455 26.2842 32.4388 26.3308 32.4854 26.3308C32.5787 26.3308 32.7185 26.3308 32.8118 26.3775C32.9517 26.3775 33.0449 26.3775 33.1848 26.3775C33.3714 26.3775 33.5579 26.3775 33.7444 26.3775C33.8376 26.3775 33.9309 26.3775 34.0241 26.3775C34.164 26.3775 34.3039 26.3775 34.3972 26.3308C34.4904 26.3308 34.6303 26.2842 34.7236 26.2842C34.8168 26.2842 34.8635 26.2376 34.9567 26.2376C35.05 26.2376 35.1432 26.191 35.2831 26.191C35.423 26.191 35.5163 26.1443 35.6561 26.0977C36.0292 26.0044 36.4022 25.9112 36.7752 25.7713C37.1482 25.6314 37.5213 25.4915 37.8943 25.3516C37.9876 25.305 38.0808 25.2584 38.1741 25.2118C38.2673 25.1651 38.4072 25.1185 38.5005 25.0252C38.5937 24.9786 38.687 24.932 38.7336 24.8853C38.8269 24.8387 38.9201 24.7921 39.0134 24.6988C39.3398 24.4657 39.6662 24.2326 39.946 23.9061C40.319 23.5331 40.5987 23.1135 40.8319 22.6938C41.2049 21.9944 41.2982 21.2017 41.2516 20.409C41.2516 20.0826 41.1583 19.8028 41.065 19.4764C40.9718 19.1966 40.8319 18.9635 40.692 18.7304C40.6454 18.6371 40.5521 18.5905 40.5055 18.4972C40.4123 18.404 40.2724 18.3107 40.1791 18.2174C40.1325 18.2641 39.9926 18.2174 39.8527 18.1708C39.7128 18.1242 39.5729 18.1242 39.4331 18.0776C39.3864 18.0776 39.2932 18.0776 39.2465 18.0776C39.06 18.0776 38.8269 18.1242 38.6403 18.1708C38.5937 18.1708 38.5005 18.2174 38.3606 18.2641C38.2207 18.3107 38.0808 18.404 37.9409 18.4972C37.8477 18.1708 37.7544 17.8444 37.6145 17.5646C37.4747 17.2849 37.1949 17.0051 36.9151 16.8186C36.6353 16.6787 36.309 16.5388 35.9825 16.4922C35.8893 16.4922 35.8427 16.4922 35.7494 16.4922C35.7028 16.4922 35.7028 16.4922 35.6561 16.4922C35.5629 16.4922 35.5163 16.4922 35.423 16.5388C35.3298 16.5388 35.1898 16.5854 35.0966 16.6321C34.9101 16.6787 34.7236 16.772 34.5371 16.8652C34.3972 16.9585 34.2107 17.0517 34.0708 17.145C33.9775 17.1916 33.8843 17.2849 33.791 17.3781C33.6977 17.4248 33.6511 17.518 33.6045 17.6113C33.6045 17.6113 33.6045 17.6113 33.5579 17.6113C33.3714 17.518 33.1848 17.4714 32.9517 17.4248C32.8585 17.4248 32.7652 17.3781 32.6719 17.3781C32.5787 17.3781 32.4854 17.3781 32.3455 17.3781C32.2523 17.3781 32.1124 17.3781 32.0191 17.3781C31.8326 17.4248 31.6927 17.4714 31.5062 17.518C31.3197 17.6113 31.1332 17.7045 30.9933 17.8444C30.7135 18.0776 30.4338 18.404 30.2939 18.777C30.154 19.15 30.1073 19.5231 30.1073 19.8961C30.1073 19.9893 30.1073 20.036 30.154 20.1292C30.154 20.2225 30.2006 20.3157 30.2472 20.409C30.154 20.4556 30.0607 20.4556 29.9675 20.5022C29.7343 20.5955 29.5478 20.7354 29.408 20.9219C29.1748 21.1084 29.0349 21.3416 28.895 21.5747C28.7551 21.7612 28.6619 22.041 28.6152 22.2275C28.5686 22.3208 28.5686 22.4606 28.5686 22.5539C28.5686 22.6938 28.522 22.8337 28.522 22.9735C28.522 23.2534 28.5686 23.5331 28.6619 23.7663C28.7085 23.9994 28.8018 24.1859 28.9417 24.419C29.0349 24.6056 29.1748 24.7455 29.268 24.8853C29.408 25.0718 29.5478 25.2118 29.7343 25.305C30.0141 25.4915 30.2006 25.5848 30.3872 25.678ZM29.7343 24.4657C29.7343 24.419 29.6877 24.3724 29.6411 24.3258C29.7343 24.1859 29.8742 24.0927 30.0141 23.9994C30.2472 23.8129 30.4804 23.5797 30.7135 23.3932C30.8068 23.3 30.8068 23.1601 30.7135 23.1135C30.6669 23.0668 30.6203 23.0668 30.5736 23.0668C30.527 23.0668 30.4804 23.0668 30.4338 23.1135C30.2006 23.3 30.0141 23.4865 29.781 23.673C29.6877 23.7663 29.5944 23.8595 29.5012 23.9061L29.4546 23.9528C29.4546 23.9528 29.4546 23.9061 29.408 23.9061C29.3613 23.8129 29.3613 23.7197 29.3147 23.673C29.3147 23.5331 29.268 23.3932 29.268 23.3C29.268 23.3 29.3147 23.3 29.3147 23.2534C29.3613 23.2067 29.408 23.1601 29.4546 23.1135C29.5012 23.0668 29.5944 23.0202 29.6411 22.9269C29.781 22.7871 29.9675 22.6472 30.1073 22.5073C30.2006 22.414 30.2006 22.3208 30.1073 22.2275C30.0607 22.1809 30.0141 22.1809 29.9675 22.1809C29.9209 22.1809 29.8742 22.1809 29.8276 22.2275C29.6877 22.3674 29.5012 22.5073 29.3613 22.6472C29.3147 22.6938 29.268 22.7404 29.268 22.7404C29.268 22.6938 29.268 22.6472 29.268 22.6005C29.268 22.5073 29.3147 22.414 29.3147 22.3674C29.3613 22.2742 29.3613 22.1343 29.408 22.041C29.4546 21.9477 29.4546 21.9011 29.5012 21.8545C29.5478 21.7612 29.6411 21.6213 29.6877 21.5281C29.7343 21.4814 29.781 21.4348 29.8276 21.3882C29.8742 21.3416 29.9209 21.2949 30.0141 21.2483C30.0607 21.2017 30.1073 21.1551 30.2006 21.1084C30.2472 21.0618 30.3405 21.0152 30.4338 21.0152C30.4804 21.0152 30.527 20.9685 30.5736 20.9685C30.6669 20.9219 30.7602 20.9219 30.8534 20.9219C30.9933 20.9219 31.0865 20.9219 31.2264 20.9219C31.3197 20.9685 31.4596 20.9685 31.5528 21.0152C31.6461 21.0618 31.7394 21.1084 31.786 21.1551C31.9259 21.2483 32.0191 21.3882 32.159 21.5281C32.2056 21.6213 32.2989 21.668 32.3455 21.7146C32.3455 21.7612 32.3922 21.8079 32.3922 21.8079C32.4388 21.9011 32.5787 21.9477 32.6719 21.9011C32.7652 21.8545 32.7652 21.7612 32.7652 21.668C32.7652 21.6213 32.7652 21.6213 32.7185 21.5747C32.7185 21.5281 32.7185 21.4814 32.7185 21.4814C32.7185 21.4348 32.7185 21.3882 32.7185 21.3882C32.7185 21.3416 32.6719 21.2949 32.6719 21.2483C32.6253 21.1551 32.6253 21.1084 32.5787 21.0618C32.532 21.0152 32.4854 20.9219 32.4388 20.8753C32.3455 20.7354 32.2056 20.6422 32.0191 20.5489C31.9259 20.5022 31.8793 20.4556 31.786 20.4556C31.6461 20.409 31.5062 20.3624 31.413 20.3624C31.2731 20.3624 31.1332 20.3157 30.9933 20.3624C30.9933 20.3157 30.9467 20.3157 30.9467 20.2691C30.9001 20.1759 30.8534 20.036 30.8534 19.9427C30.8534 19.8028 30.8534 19.6629 30.8534 19.5231C30.9001 19.3365 30.9467 19.1966 30.9933 19.0568C31.0399 18.9169 31.1332 18.777 31.2264 18.6371C31.3197 18.5438 31.413 18.4506 31.5062 18.3573C31.6461 18.2641 31.786 18.1708 31.9259 18.1242C32.0657 18.0776 32.159 18.0309 32.2989 18.0309C32.4854 18.0309 32.6253 18.0309 32.8118 18.0309C32.8585 18.0309 32.9051 18.0309 32.9517 18.0309C32.9983 18.0309 33.0916 18.0776 33.1382 18.0776C33.2315 18.1242 33.3247 18.1242 33.418 18.1708C33.5112 18.2174 33.6511 18.2641 33.7444 18.3107C33.8376 18.3573 33.9309 18.404 33.9775 18.4972C34.1174 18.5905 34.2107 18.6837 34.3506 18.8236C34.4904 18.9169 34.6769 18.9169 34.7702 18.8236C34.8635 18.7304 34.9101 18.4972 34.7702 18.404C34.6303 18.2641 34.4438 18.1242 34.2573 17.9843C34.2573 17.9843 34.2107 17.9843 34.2107 17.9377C34.164 17.7978 34.2107 17.7978 34.2107 17.7512C34.2573 17.7045 34.3506 17.6579 34.3972 17.6113C34.4904 17.5646 34.5837 17.4714 34.6769 17.4248C34.7702 17.3315 34.9101 17.3315 35.0033 17.2849C35.0966 17.2382 35.1898 17.2382 35.2831 17.1916C35.3764 17.145 35.4696 17.145 35.5629 17.145C35.5629 17.145 35.5629 17.145 35.6095 17.145C35.6561 17.145 35.7028 17.145 35.7494 17.145C35.8427 17.145 35.9359 17.145 36.0292 17.145C36.0758 17.145 36.1224 17.145 36.1224 17.145C36.2157 17.145 36.309 17.1916 36.4022 17.2382C36.4488 17.2849 36.4955 17.2849 36.5421 17.3315C36.5887 17.3315 36.6353 17.3781 36.7286 17.4248C36.8219 17.518 36.9151 17.5646 36.9618 17.6579C37.0084 17.7045 37.055 17.7978 37.1016 17.8444C37.1482 17.891 37.1949 17.9843 37.1949 18.0309C37.2415 18.1242 37.2881 18.2641 37.3348 18.3573C37.3814 18.5438 37.428 18.7304 37.4747 18.9169C37.4747 18.9169 37.4747 18.9169 37.4747 18.9635C37.4747 18.9635 37.4747 18.9635 37.4747 19.0101C37.3814 19.15 37.2881 19.2433 37.2415 19.3832C37.1949 19.5231 37.1482 19.6163 37.1016 19.7562C37.055 19.8494 37.1016 19.9427 37.1482 19.9893C37.1949 20.036 37.2415 20.1292 37.3348 20.1292C37.428 20.1292 37.5213 20.1292 37.5679 20.0826C37.6612 20.036 37.6611 19.9893 37.7078 19.8961C37.7078 19.8494 37.7544 19.8028 37.7544 19.7562C37.8477 19.5697 37.9409 19.4298 38.0342 19.2899C38.0808 19.2433 38.0808 19.1966 38.1274 19.15C38.2207 19.0568 38.2673 19.0101 38.3606 18.9169C38.4072 18.8702 38.4539 18.8236 38.5471 18.8236C38.5937 18.777 38.6403 18.777 38.7336 18.7304C38.687 18.777 38.7803 18.7304 38.8269 18.7304C38.8735 18.7304 38.9668 18.6837 39.0134 18.6837C39.06 18.6837 39.1533 18.6837 39.1999 18.6837C39.2932 18.6837 39.3398 18.6837 39.4331 18.6837C39.4797 18.6837 39.5263 18.6837 39.5729 18.7304C39.6195 18.7304 39.6662 18.777 39.7595 18.777C39.8527 18.8236 39.946 18.8702 39.9926 18.9169C40.0392 18.9635 40.0858 18.9635 40.1325 19.0101C40.1791 19.0568 40.2257 19.1034 40.2724 19.15C40.319 19.1966 40.3656 19.2433 40.3656 19.2899C40.4123 19.3832 40.4589 19.4764 40.5521 19.6163C40.5987 19.7096 40.6454 19.8494 40.692 19.9427C40.7386 20.0826 40.7386 20.2225 40.7853 20.3157C40.8319 20.6422 40.8319 21.0152 40.7853 21.3416C40.7853 21.4814 40.7386 21.6213 40.692 21.7612C40.6454 21.9477 40.5987 22.0876 40.5055 22.2742C40.4589 22.414 40.4123 22.5073 40.319 22.6005C40.2724 22.6938 40.2257 22.7404 40.1791 22.8337C40.0858 22.9735 40.0392 23.0668 39.946 23.1601L39.9926 23.1135C39.8993 23.2067 39.8527 23.3 39.7595 23.3932C39.7128 23.4398 39.6662 23.4865 39.6195 23.5331C39.5729 23.5797 39.5263 23.6264 39.4797 23.673C39.4331 23.7197 39.3864 23.7663 39.3398 23.8129C39.2932 23.8595 39.2465 23.9061 39.1999 23.9528C39.1999 23.9528 39.1533 23.9994 39.1066 23.9994C39.2465 23.7663 39.3864 23.5331 39.5263 23.3C39.5729 23.2067 39.5729 23.0668 39.4797 23.0202C39.4331 23.0202 39.3864 22.9735 39.3864 22.9735C39.3398 22.9735 39.2465 23.0202 39.1999 23.0668C39.06 23.3 38.9201 23.5331 38.7803 23.7663C38.687 23.9061 38.6403 23.9994 38.5471 24.1393C38.5005 24.2326 38.4539 24.2792 38.4072 24.3724C38.4072 24.419 38.3606 24.4657 38.4072 24.5123C38.3606 24.5589 38.314 24.5589 38.2673 24.6056C38.1741 24.6988 38.0342 24.7455 37.8943 24.7921C37.8011 24.8387 37.6612 24.8853 37.5679 24.932C37.7544 24.6988 37.9409 24.4657 38.1274 24.2326C38.1741 24.1859 38.1741 24.1393 38.1741 24.0927C38.1741 24.046 38.1274 23.9994 38.0808 23.9528C38.0342 23.9528 37.9876 23.9061 37.9876 23.9061H37.9409C37.8943 23.9061 37.8477 23.9528 37.8011 23.9994C37.5213 24.3258 37.2881 24.6522 37.0084 24.9786C36.9618 25.0252 36.9618 25.0252 36.9151 25.0718C36.8685 25.1185 36.8685 25.1651 36.9151 25.2118C36.682 25.305 36.4022 25.3983 36.169 25.4449C36.2623 25.305 36.4022 25.1651 36.4955 25.0252C36.5421 24.9786 36.5421 24.932 36.5421 24.8853C36.5421 24.8387 36.5421 24.7921 36.4955 24.7455C36.4488 24.6988 36.4022 24.6988 36.3556 24.6988C36.309 24.6988 36.2623 24.6988 36.2157 24.7455C36.0758 24.932 35.9359 25.0718 35.796 25.2584C35.7028 25.3516 35.6561 25.3983 35.6095 25.4915C35.5629 25.5381 35.5629 25.5848 35.5163 25.6314C35.4696 25.6314 35.4696 25.6314 35.423 25.6314C35.1898 25.678 35.0034 25.7247 34.7702 25.7713C34.6303 25.7713 34.5371 25.8179 34.3972 25.8179C34.5371 25.678 34.6769 25.5848 34.8168 25.4449C34.9101 25.3516 34.9101 25.2118 34.8168 25.1651C34.7702 25.1185 34.7236 25.1185 34.6769 25.1185C34.6303 25.1185 34.5837 25.1185 34.5371 25.1651C34.3506 25.305 34.2107 25.4449 34.0708 25.5848C33.9775 25.6314 33.9309 25.7247 33.8376 25.7713C33.791 25.8179 33.791 25.8179 33.7444 25.8646C33.6977 25.8646 33.6511 25.8646 33.5579 25.8646C33.4646 25.8646 33.3247 25.8646 33.2315 25.8646C33.1382 25.8646 33.0449 25.8646 32.9517 25.8646C32.8585 25.8646 32.7652 25.8646 32.7185 25.8646C32.9983 25.678 33.2315 25.4449 33.5112 25.2584C33.5579 25.2118 33.5579 25.1651 33.5579 25.1185C33.5579 25.0718 33.5579 25.0252 33.5112 24.9786C33.4646 24.932 33.418 24.932 33.3714 24.932C33.3247 24.932 33.2781 24.932 33.2315 24.9786C33.0449 25.1185 32.8585 25.2584 32.6253 25.4449C32.4854 25.5381 32.3922 25.6314 32.2523 25.7247C32.2056 25.7247 32.2056 25.7713 32.2056 25.8179C32.159 25.8179 32.1124 25.8179 32.0658 25.8179C31.9259 25.8179 31.8326 25.7713 31.6927 25.7247C31.5528 25.678 31.3663 25.6314 31.2264 25.5848C31.2731 25.5381 31.3663 25.4915 31.413 25.4449C31.6927 25.2584 31.9259 25.0718 32.2056 24.8853C32.2523 24.8387 32.2523 24.7921 32.2523 24.7455C32.2523 24.6988 32.2523 24.6522 32.2056 24.6056C32.159 24.5589 32.1124 24.5589 32.0658 24.5589C32.0191 24.5589 31.9725 24.6056 31.9259 24.6056C31.7393 24.7455 31.5528 24.8853 31.3197 25.0718C31.2264 25.1185 31.1798 25.2118 31.0865 25.2584C31.0399 25.305 30.9933 25.3516 30.9467 25.3516L30.9001 25.3983C30.9001 25.3983 30.9001 25.4449 30.8534 25.4915C30.8068 25.4915 30.8068 25.4449 30.7602 25.4449C30.6669 25.3983 30.5736 25.3516 30.4804 25.305C30.3872 25.2584 30.2939 25.2118 30.2472 25.1185C30.3405 25.0252 30.4804 24.932 30.5736 24.8387C30.8068 24.6522 30.9933 24.4657 31.2264 24.2792C31.3197 24.2326 31.3197 24.0927 31.2264 23.9994C31.1798 23.9528 31.1332 23.9528 31.0865 23.9528C31.0399 23.9528 30.9933 23.9528 30.9467 23.9994C30.7135 24.1859 30.4804 24.3724 30.2939 24.5589C30.2006 24.6522 30.0607 24.7455 29.9675 24.8853C29.9209 24.6522 29.8276 24.5589 29.7343 24.4657C29.781 24.5123 29.781 24.5123 29.781 24.5123C29.7343 24.4657 29.7343 24.4657 29.7343 24.4657ZM30.8068 25.9112C30.7602 25.9112 30.7602 25.8646 30.7602 25.8646C30.8068 25.9112 30.8068 25.9112 30.8068 25.9112ZM20.6884 23.673C20.6884 23.6264 20.6884 23.6264 20.6884 23.673V23.673ZM36.5887 30.2943C36.5887 30.201 36.5421 30.0611 36.5421 29.9679C36.5421 29.828 36.4955 29.7347 36.4955 29.5948C36.4488 29.455 36.4488 29.3617 36.4022 29.2218C36.4022 29.1285 36.4022 29.0819 36.3556 28.9887C36.309 28.8954 36.2623 28.8488 36.169 28.8488H36.1224C36.0292 28.8954 35.9359 28.9887 35.9825 29.0819C35.9825 29.1285 35.9825 29.1752 36.0292 29.2218C36.0292 29.4083 36.0292 29.5948 36.0292 29.7814C36.0292 29.9679 36.0292 30.1544 36.0758 30.3409C36.1224 30.7606 36.1224 31.1336 36.169 31.5532C36.2157 31.9729 36.2157 32.3459 36.2623 32.7656C36.2623 33.1852 36.309 33.5583 36.2623 33.9779C36.2623 34.1178 36.2157 34.2577 36.169 34.3976C36.1224 34.4909 36.0758 34.5375 36.0292 34.6307C35.9825 34.724 35.8893 34.7706 35.796 34.8639C35.7028 34.9571 35.6095 35.0038 35.5163 35.0504C35.423 35.097 35.3298 35.1436 35.2365 35.1903C34.9567 35.2835 34.7236 35.3768 34.4438 35.4234C34.164 35.4701 33.8377 35.5633 33.5579 35.6099C33.3247 35.6565 33.0916 35.6565 32.8585 35.7032C32.5787 35.7032 32.3455 35.7498 32.0658 35.7498C31.8326 35.7498 31.5528 35.7498 31.3197 35.7964C31.1798 35.7964 31.0865 35.7964 30.9467 35.8431C30.8068 35.8431 30.6669 35.8897 30.527 35.8897C30.7602 35.6099 30.9933 35.3768 31.2264 35.1436C31.3663 35.0038 31.5062 34.9105 31.5995 34.7706C31.6461 34.724 31.7394 34.6307 31.786 34.5841C31.8326 34.5375 31.8793 34.4442 31.9259 34.3976C32.0191 34.351 32.0191 34.2111 31.9725 34.1178C31.9259 34.0712 31.8793 34.0246 31.786 34.0246C31.7394 34.0246 31.7393 34.0246 31.6927 34.0712C31.6461 34.0712 31.6461 34.1178 31.5995 34.1178C31.5528 34.1644 31.4596 34.1644 31.413 34.2111C31.3197 34.2577 31.2731 34.351 31.1798 34.3976C31.0399 34.4909 30.9001 34.6307 30.7602 34.7706C30.4804 35.0504 30.154 35.2835 29.8742 35.5633C29.8276 35.6099 29.781 35.7032 29.6877 35.7498C29.5944 35.8897 29.4546 36.0296 29.4546 36.2161C29.4546 36.3094 29.4546 36.356 29.5012 36.4493C29.5012 36.4959 29.5012 36.4959 29.5478 36.5425C29.5944 36.5891 29.5944 36.6358 29.6411 36.6824C29.7343 36.729 29.781 36.7756 29.8742 36.8689C29.9675 36.9156 30.0141 36.9622 30.1073 37.0088C30.527 37.1953 30.9001 37.3818 31.3197 37.5683C31.3663 37.615 31.4596 37.5683 31.5062 37.5217C31.5528 37.4751 31.5995 37.4285 31.6461 37.3818C31.6461 37.3352 31.6461 37.2419 31.5995 37.1953C31.5528 37.1487 31.5062 37.102 31.4596 37.102C31.413 37.0554 31.3197 37.0554 31.2731 37.0088H31.3197C31.1332 36.9155 30.9467 36.8689 30.8068 36.7756C30.6669 36.6824 30.527 36.6358 30.3872 36.5425C30.8068 36.4959 31.2264 36.4959 31.6461 36.4493C32.0657 36.4493 32.4388 36.4026 32.8585 36.356C33.2781 36.3094 33.6977 36.2627 34.1174 36.1695C34.3039 36.1228 34.4904 36.0762 34.6769 36.0296C34.7702 35.983 34.8635 35.983 35.0033 35.9364C35.0966 35.8897 35.1898 35.8431 35.2831 35.8431C35.5163 35.7498 35.7028 35.6565 35.8893 35.5633C36.1224 35.4701 36.309 35.2835 36.4488 35.1436C36.5421 35.0504 36.5887 35.0038 36.6353 34.9105C36.682 34.8172 36.7286 34.724 36.7752 34.6307C36.8219 34.4442 36.8685 34.2111 36.8685 33.9779C36.8685 33.5583 36.8219 33.1386 36.8219 32.7656C36.7752 31.8797 36.682 31.0869 36.5887 30.2943ZM26.8434 18.6371C26.7501 18.4972 26.6102 18.3573 26.4704 18.2174C26.3771 18.0776 26.2372 17.9843 26.0973 17.8444C26.0507 17.7978 26.0041 17.7512 25.9574 17.7045C25.9108 17.6579 25.9108 17.6579 25.8642 17.6579C25.8175 17.6579 25.8175 17.6113 25.7709 17.6113C25.7709 17.6113 25.7709 17.6113 25.7243 17.6113C25.6776 17.6113 25.6776 17.5646 25.631 17.5646C25.5844 17.5646 25.4912 17.6113 25.4445 17.6579C25.3979 17.7512 25.3979 17.8444 25.4912 17.9377C25.5378 18.0776 25.6776 18.1242 25.7709 18.2174C25.8642 18.3107 25.9574 18.4506 26.0507 18.5438C26.0973 18.6371 26.1439 18.7304 26.2372 18.777C25.4912 18.6837 24.6984 18.6371 23.9058 18.5905C23.7659 18.5905 23.626 18.5905 23.4861 18.5905C23.253 18.5905 23.0198 18.5905 22.7867 18.5905C22.4137 18.5905 21.994 18.6371 21.621 18.6371C21.4345 18.6371 21.2479 18.6837 21.0614 18.6837C20.9216 18.6837 20.7817 18.7304 20.6418 18.7304C20.5485 18.7304 20.4553 18.777 20.362 18.777C20.3154 18.777 20.2688 18.8236 20.2221 18.8236C20.1755 18.8236 20.0822 18.8702 20.0356 18.9169C19.989 18.9169 19.989 18.9635 19.9424 18.9635C19.9424 19.1034 19.8957 19.15 19.8957 19.1966C19.8491 19.2899 19.8025 19.3832 19.8025 19.4764C19.8025 19.6163 19.8025 19.7562 19.8025 19.8961C19.8025 20.0826 19.8025 20.3157 19.8025 20.5022C19.8025 20.8753 19.8025 21.2483 19.8491 21.6213C19.8491 22.041 19.9424 22.4606 19.989 22.8803C19.989 23.0202 20.0356 23.1135 20.0822 23.2534C20.1289 23.3932 20.2221 23.5331 20.2687 23.673C20.2687 23.7197 20.3154 23.7663 20.3154 23.8129C20.362 23.9061 20.5019 23.9528 20.5952 23.9061C20.6884 23.8595 20.735 23.7197 20.6884 23.6264C20.6884 23.6264 20.6884 23.5797 20.6418 23.5797C20.6418 23.4398 20.6418 23.2534 20.5952 23.1135C20.5952 22.9735 20.5485 22.8337 20.5485 22.6938C20.5019 22.1809 20.4553 21.668 20.4553 21.1551C20.4553 20.6422 20.4087 20.1292 20.5019 19.6163C20.5019 19.5697 20.5019 19.5697 20.5019 19.5231C20.5019 19.5231 20.5019 19.5231 20.5019 19.4764C20.5019 19.4764 20.5019 19.4764 20.5485 19.4298C20.5952 19.3832 20.6418 19.3832 20.6884 19.3365C20.9216 19.2433 21.2013 19.1966 21.4345 19.15H21.3879C23.0665 18.9635 24.7917 19.1034 26.4237 19.2899C26.4704 19.2899 26.517 19.2899 26.5636 19.2433C26.5636 19.2433 26.5636 19.2899 26.517 19.2899C26.3305 19.4764 26.1439 19.6629 25.9108 19.8494C25.6776 19.9893 25.4912 20.1759 25.258 20.3157C25.2114 20.3624 25.1647 20.409 25.1647 20.4556C25.1647 20.5022 25.1647 20.5489 25.1647 20.6422C25.2114 20.7354 25.3513 20.782 25.4445 20.7354C25.631 20.5955 25.7709 20.5022 25.9574 20.3624C26.0973 20.2691 26.2838 20.1292 26.4237 20.036C26.5636 19.9427 26.7501 19.8028 26.89 19.7096C26.9833 19.6163 27.1231 19.5231 27.1697 19.3832C27.2164 19.2433 27.1697 19.1034 27.0765 18.9635C27.0765 18.8702 26.9366 18.777 26.8434 18.6371Z" fill="black"/>
</g>
<defs>
<clipPath id="clip0_5251_9669">
<rect width="27" height="29.8422" fill="white" transform="translate(15 15)"/>
</clipPath>
</defs>
</svg>
