<svg width="57" height="65" viewBox="0 0 57 65" fill="none" xmlns="http://www.w3.org/2000/svg">
<rect width="57" height="64.0201" rx="6" fill="#FFEAD9"/>
<g clip-path="url(#clip0_5251_9708)">
<path d="M35.8269 29.6409C35.7737 29.6942 35.7737 29.6942 35.7204 29.7474C35.6672 29.8007 35.5607 29.9071 35.5075 29.9603C35.401 30.0136 35.2945 30.1201 35.1881 30.1733C35.0816 30.2266 35.0283 30.2266 34.9218 30.2798C34.3362 30.4927 33.6973 30.5992 33.1117 30.6525C32.8455 30.6525 32.6326 30.7057 32.3664 30.7057C32.2599 30.7057 32.1002 30.7057 31.9937 30.7057C31.9404 30.7057 31.8872 30.7057 31.834 30.7057C31.7807 30.7057 31.7807 30.7057 31.7275 30.7057C31.5678 30.7057 31.4613 30.8122 31.4613 30.9719C31.4613 31.1316 31.5678 31.2381 31.7275 31.2381H31.7807C32.2067 31.3446 32.5793 31.3446 33.0053 31.2913C33.4844 31.2381 33.9103 31.1848 34.3895 31.0784C34.8154 30.9719 35.1881 30.8654 35.5607 30.7057C35.6672 30.6525 35.8269 30.546 35.9334 30.4927C36.0399 30.3863 36.1464 30.333 36.2528 30.2266C36.3593 30.1201 36.4126 30.0136 36.4658 29.9071C36.5191 29.8007 36.5723 29.7474 36.6255 29.6409C36.6788 29.5344 36.732 29.4812 36.732 29.3747C36.7853 29.215 36.8385 29.002 36.8917 28.8423C36.945 28.6826 36.8385 28.5229 36.732 28.4697H36.6788C36.5723 28.4697 36.4658 28.5229 36.4126 28.6826C36.3593 28.8956 36.2528 29.1618 36.1464 29.3747C35.9867 29.3747 35.9334 29.5344 35.8269 29.6409ZM15.2765 20.8564C15.4362 20.8564 15.5427 20.7499 15.5427 20.5902C15.5427 20.1642 15.5427 19.6851 15.5427 19.2592C15.5427 19.0462 15.596 18.8333 15.596 18.6735C15.596 18.4606 15.6492 18.3009 15.6492 18.0879C15.7024 17.7152 15.8089 17.3958 15.9154 17.0763V17.0231C15.9154 17.0231 15.9154 17.0231 15.9154 17.0763C16.0219 16.9699 16.0219 16.9166 16.0751 16.8634C16.1283 16.8101 16.1283 16.8101 16.1816 16.7569C16.2348 16.7037 16.2881 16.7037 16.3413 16.6504C16.714 16.4907 17.1399 16.3842 17.5658 16.2778C17.9385 16.1713 18.3112 16.0648 18.6838 15.9583C19.0565 15.8518 19.4292 15.7454 19.8019 15.6389C19.9616 15.5856 20.1745 15.5324 20.3343 15.4792C20.494 15.4259 20.6004 15.4259 20.7602 15.3727C20.9199 15.3194 20.9732 15.213 20.9732 15.0532C20.8667 15.1065 20.7602 15 20.6537 15H20.6004C20.5472 15 20.4407 15.0532 20.3875 15.0532C20.281 15.1065 20.1213 15.1065 20.0148 15.1597C19.8019 15.213 19.5357 15.2662 19.3227 15.3194C18.7903 15.4792 18.2579 15.5856 17.7255 15.7454C17.4593 15.7986 17.2464 15.8518 16.9802 15.9051C16.8737 15.9583 16.7672 15.9583 16.6607 16.0116C16.501 16.0648 16.3413 16.0648 16.1816 16.1713C16.1283 16.1713 16.0751 16.2245 16.0219 16.2245C15.9154 16.2245 15.8621 16.2778 15.8089 16.331C15.7557 16.3842 15.7024 16.4375 15.6492 16.4375C15.596 16.4907 15.5427 16.5972 15.5427 16.6504C15.4895 16.7037 15.4362 16.8101 15.383 16.9166C15.383 16.9699 15.3298 17.0763 15.3298 17.1828C15.2765 17.3958 15.2233 17.662 15.17 17.9282C15.0103 18.78 15.0103 19.6851 15.0103 20.5902C15.0103 20.7499 15.1168 20.8564 15.2765 20.8564ZM29.2785 49.0201C29.2253 49.0201 29.2253 49.0201 29.2785 49.0201V49.0201ZM31.8872 47.5294C31.5145 47.7424 31.0886 47.9021 30.6627 48.0618C30.4498 48.115 30.2368 48.2215 29.9706 48.2748C29.7044 48.328 29.4382 48.3813 29.172 48.4345C28.9058 48.4345 28.6396 48.4878 28.3202 48.4878C28.054 48.4878 27.7878 48.4345 27.5216 48.3813C27.2554 48.328 26.9892 48.2748 26.723 48.1683C26.51 48.115 26.2971 48.0086 26.0841 47.9021C25.8712 47.7956 25.6582 47.6891 25.4453 47.5827C25.3388 47.5294 25.2855 47.4762 25.1791 47.423C25.1258 47.3697 25.0726 47.3697 25.0193 47.3165C24.9661 47.3165 24.9128 47.2632 24.8596 47.2632H24.8064C24.7532 47.2632 24.6999 47.3165 24.6467 47.3697C24.5934 47.4762 24.5934 47.6359 24.6999 47.7424C24.8064 47.7956 24.8596 47.8489 24.9128 47.9021C25.0193 47.9554 25.1258 48.0619 25.2323 48.115C25.4453 48.2748 25.7114 48.3813 25.9244 48.4878C26.4568 48.7539 26.9892 48.8604 27.5748 48.9669C27.841 49.0201 28.054 49.0201 28.3202 49.0201C28.4799 49.0201 28.5864 49.0201 28.7461 49.0201C28.9058 49.0201 29.0123 49.0201 29.172 48.9669C29.172 48.9669 29.172 48.9669 29.2253 48.9669C29.7044 48.9137 30.1303 48.8072 30.5562 48.6475C31.0887 48.4878 31.621 48.2215 32.1002 47.9554C32.2599 47.9021 32.2599 47.6891 32.2067 47.5827C32.2067 47.5294 32.0469 47.4762 31.8872 47.5294ZM26.4568 33.208C26.51 33.208 26.5633 33.208 26.6165 33.1547C26.9359 33.1015 27.2554 33.1015 27.5748 33.1015C27.9475 33.1015 28.2669 33.1015 28.6396 33.1547C28.9591 33.208 29.2253 33.2612 29.5447 33.3144C29.8641 33.3677 30.1303 33.4742 30.4498 33.5807C30.8757 33.7403 31.2483 33.9533 31.621 34.1663C32.0469 34.3792 32.4196 34.6454 32.8455 34.8052C33.0585 34.9116 33.3247 35.0181 33.5377 35.0713C33.8038 35.1778 34.07 35.1778 34.3362 35.2311C34.8154 35.2843 35.2945 35.2311 35.7737 35.1778C36.2528 35.1246 36.7853 35.1246 37.2644 35.0713C37.7436 35.0181 38.2227 35.0181 38.7018 35.0181C39.1278 35.0181 39.6069 35.0181 40.0328 35.0181C40.4588 35.0181 40.9379 35.0181 41.3638 35.0181C41.63 35.0181 41.7898 34.8052 41.7898 34.5922C41.7898 34.326 41.5768 34.1663 41.3638 34.1663C41.0977 34.1663 40.7782 34.1663 40.512 34.1663C40.2458 34.1663 39.9796 34.1663 39.7134 34.1663C39.1278 34.1663 38.4889 34.1663 37.9033 34.2195C37.5838 34.2195 37.2644 34.2727 36.9982 34.2727C36.6788 34.2727 36.3593 34.326 36.0399 34.3792C35.7737 34.4325 35.4543 34.4325 35.1881 34.4857C34.8687 34.4857 34.6024 34.4857 34.283 34.4857C34.1233 34.4325 33.9636 34.4325 33.8038 34.3792C33.6441 34.326 33.4844 34.2727 33.3779 34.2195C33.1649 34.1131 32.8988 34.0066 32.6858 33.8468C32.4728 33.7403 32.3132 33.6339 32.1002 33.5274C31.6743 33.3144 31.1951 33.0482 30.7159 32.8885C29.7577 32.5158 28.7461 32.3561 27.7878 32.3561C27.7345 32.3561 27.6813 32.3561 27.6813 32.3561C27.2022 32.3561 26.723 32.4093 26.2438 32.5158C26.0841 32.5691 25.9244 32.6223 25.7647 32.6756C25.4985 32.6223 25.2323 32.6223 25.0193 32.6223C24.9128 32.6223 24.8064 32.6223 24.6467 32.6223C24.274 32.6223 23.9013 32.6756 23.5818 32.6756H23.6351C23.5818 32.6756 23.5287 32.6756 23.4754 32.6756H23.5287C23.4754 32.6756 23.4754 32.6756 23.4222 32.6756C22.5703 32.7821 21.7717 33.0482 20.9732 33.2612C20.1745 33.4742 19.3227 33.6871 18.5241 33.8468C18.045 33.9001 17.5658 33.9533 17.0867 33.9533C16.6075 33.9533 16.1283 33.9533 15.6492 34.0066C15.383 34.0066 15.2233 34.2195 15.2233 34.4325C15.2233 34.6454 15.4362 34.9116 15.6492 34.8584C16.2881 34.8052 16.9269 34.8052 17.5658 34.8052C17.9385 34.8052 18.3112 34.7519 18.6838 34.6987C19.0565 34.6454 19.4292 34.5922 19.8019 34.4857C20.3875 34.326 21.0264 34.1663 21.612 34.0066C21.9314 33.9001 22.2509 33.7936 22.5703 33.7403C22.8898 33.6339 23.2624 33.5807 23.5818 33.5274C23.8481 33.4742 24.061 33.4742 24.3272 33.4742C24.1675 33.5807 24.0078 33.7403 23.8481 33.8468C23.6883 34.0066 23.5287 34.2195 23.3689 34.3792C23.2624 34.539 23.1559 34.7519 23.0495 34.9116C22.9962 35.0713 22.943 35.2311 22.943 35.3908C22.943 35.4972 22.8898 35.657 22.943 35.7635C22.943 35.87 22.943 35.9764 22.9962 36.0829C22.9962 36.1894 23.0495 36.2426 23.1027 36.3491C23.1559 36.4556 23.2092 36.5621 23.2624 36.6686C23.3157 36.7218 23.3689 36.8282 23.4222 36.8815C23.5287 36.988 23.6883 37.0945 23.7948 37.1477C23.9013 37.201 23.9545 37.2542 24.061 37.2542C24.1675 37.3074 24.2207 37.3074 24.3272 37.3607C24.4869 37.4139 24.6999 37.4671 24.8596 37.4671C25.2323 37.5204 25.605 37.4671 25.9777 37.4139C26.6698 37.3074 27.4151 37.0945 28.1072 36.988C28.3734 36.9347 28.5864 36.9347 28.8526 36.9347C29.0655 36.9347 29.3317 36.9347 29.5447 36.988C29.7044 37.0412 29.8641 37.0412 30.0238 37.0945C30.1836 37.1477 30.3433 37.201 30.503 37.2542C30.6627 37.3074 30.8224 37.4139 30.9822 37.4671C31.1418 37.5736 31.3016 37.6801 31.5145 37.7866C32.2599 38.3722 32.952 39.0643 33.5909 39.7032C33.9636 40.0759 34.3362 40.4486 34.6557 40.8745C34.9751 41.1939 35.2945 41.5666 35.6672 41.886C35.8269 41.9925 35.9867 42.099 36.1464 42.2587C36.0932 42.2587 36.0399 42.312 35.9867 42.3652C35.9334 42.4185 35.9334 42.4716 35.8802 42.5249C35.7204 42.6846 35.5607 42.7911 35.4543 42.9508C35.2945 43.1105 35.1881 43.2703 35.0283 43.3767C34.7089 43.6962 34.3895 43.9624 34.07 44.2286C33.3247 44.8142 32.5261 45.2934 31.621 45.7193C31.4081 45.8258 31.1951 45.879 30.9822 45.9855C30.8224 46.0387 30.6627 46.092 30.503 46.092C30.503 45.9322 30.5562 45.8258 30.5562 45.666C30.5562 45.5595 30.5562 45.4531 30.5562 45.3466C30.5562 45.2401 30.503 45.1336 30.4498 45.0272C30.3965 44.9207 30.3433 44.8675 30.2368 44.8142C30.1303 44.761 30.0771 44.7077 29.9706 44.6545C29.8641 44.6013 29.7577 44.6012 29.5979 44.6012C29.4382 44.6012 29.2785 44.6545 29.1188 44.7077C28.7461 44.8142 28.4267 44.9739 28.054 45.1336C28.1072 45.1336 28.1072 45.0804 28.1604 45.0804C28.1072 45.1336 28.0007 45.1336 27.9475 45.1869C28.054 44.8142 28.1604 44.4415 28.054 44.1221C28.0007 44.0156 27.9475 43.8559 27.841 43.8026C27.7345 43.6962 27.6281 43.643 27.4683 43.5897C27.3087 43.5365 27.1489 43.5365 27.0424 43.5897C26.9359 43.5897 26.8827 43.643 26.8295 43.643C26.6165 43.6962 26.4036 43.8026 26.2438 43.9091C26.2971 43.8026 26.2971 43.7494 26.3503 43.643C26.4036 43.43 26.4568 43.1638 26.4568 42.9508C26.4568 42.6846 26.4036 42.4184 26.2438 42.2055C26.1906 42.1522 26.1373 42.099 26.0841 42.0457C25.9777 41.9925 25.9244 41.9393 25.8179 41.886C25.6582 41.8328 25.4453 41.8328 25.2323 41.8328C25.1258 41.8328 25.0193 41.886 24.9128 41.9393C24.7532 41.9925 24.6467 42.0457 24.4869 42.099C24.3804 42.1522 24.274 42.2055 24.1675 42.2587C24.1675 42.1522 24.1675 42.099 24.1675 41.9925C24.1675 41.8328 24.1675 41.7263 24.1143 41.5666C24.1143 41.4601 24.061 41.3536 24.061 41.2471C23.9545 40.9277 23.7948 40.6615 23.5287 40.4486C23.4754 40.3953 23.3689 40.3421 23.2624 40.2888C23.1559 40.2356 23.0495 40.2356 22.8898 40.2356C22.8898 40.2356 22.8898 40.2356 22.8365 40.2356C22.73 40.2356 22.6768 40.2356 22.5703 40.2888C22.5171 40.2888 22.4638 40.3421 22.3573 40.3421C22.3041 40.3421 22.1977 40.3953 22.1444 40.4486C22.0912 40.5018 21.9847 40.555 21.9314 40.6083C21.8782 40.6615 21.7717 40.7147 21.7185 40.768C21.612 40.8212 21.5588 40.9277 21.4523 41.0342C21.3458 41.1407 21.2926 41.2471 21.2393 41.3536C21.1861 41.4069 21.1861 41.4601 21.1328 41.5666C20.8667 41.4069 20.5472 41.2471 20.281 41.0875C19.5357 40.768 18.6838 40.555 17.832 40.4486C17.619 40.4486 17.4061 40.3953 17.1399 40.3953C16.9802 40.3953 16.8205 40.3953 16.6607 40.3953C16.2348 40.3953 15.7557 40.5018 15.3298 40.6083C15.1168 40.6615 14.9571 40.9277 15.0103 41.1406C15.0636 41.2471 15.1168 41.3536 15.2233 41.4069C15.3298 41.4601 15.4362 41.4601 15.5427 41.4601C15.8621 41.4069 16.1816 41.3004 16.501 41.3004C17.0867 41.2471 17.619 41.3004 18.2047 41.3536C18.5241 41.4069 18.8436 41.4601 19.163 41.5666C19.4824 41.6731 19.8019 41.7795 20.1213 41.886C20.8134 42.2055 21.3991 42.5781 22.0379 43.0041C22.5703 43.3767 23.1027 43.7494 23.6351 44.1754L23.5818 44.1221C23.9545 44.4415 24.3804 44.761 24.8064 45.0272C25.2323 45.3466 25.605 45.6128 26.0309 45.879C26.4568 46.1452 26.9359 46.3582 27.4151 46.5711C27.841 46.7309 28.2669 46.8905 28.7461 46.9438C28.9591 46.997 29.172 46.997 29.4382 46.997C29.6512 46.997 29.9173 46.997 30.1303 46.997C30.6627 46.9438 31.1418 46.7841 31.5678 46.6244C32.5261 46.2517 33.3779 45.666 34.2298 45.0804C34.6557 44.761 35.0816 44.3883 35.4543 43.9624C35.6672 43.7494 35.8269 43.5365 35.9867 43.2703C36.0399 43.1638 36.1464 43.0573 36.1464 42.9508C36.1996 42.8976 36.1996 42.8444 36.2528 42.7911C36.3061 42.7379 36.3061 42.6846 36.3593 42.6846C36.4126 42.6314 36.4126 42.5781 36.3593 42.5249C36.5191 42.6314 36.6788 42.7379 36.8917 42.7911C37.2112 42.9508 37.5838 43.0041 37.9033 43.0041C38.1695 43.0041 38.3824 43.0041 38.6487 42.9508C38.9148 42.9508 39.1278 42.8976 39.394 42.8444C39.6069 42.7911 39.8732 42.7911 40.0861 42.7379C40.2991 42.6846 40.5653 42.6314 40.7782 42.5781C40.9912 42.5249 41.2041 42.4716 41.3638 42.3652C41.4171 42.3652 41.4171 42.3652 41.4703 42.3652C41.63 42.3652 41.7365 42.2587 41.7365 42.099C41.7365 41.9393 41.63 41.8328 41.4703 41.8328C41.4171 41.8328 41.3638 41.8328 41.2573 41.886C40.9912 41.886 40.7249 41.886 40.4055 41.886C40.0861 41.9393 39.7667 41.9393 39.5004 41.9925C38.9148 42.0457 38.2759 42.1522 37.6371 42.099C37.5306 42.099 37.4241 42.0457 37.3177 42.0457C37.2112 41.9925 37.1579 41.9925 37.0514 41.9393C36.8917 41.886 36.732 41.7795 36.5723 41.6731C36.4658 41.6198 36.3593 41.5134 36.2528 41.4601C35.8802 41.1939 35.5607 40.8745 35.2413 40.555C34.8687 40.1824 34.4959 39.7565 34.07 39.3837C33.3247 38.6384 32.6326 37.8398 31.7807 37.201C31.5678 37.0412 31.3548 36.8815 31.1418 36.775C30.8757 36.6153 30.6095 36.5088 30.3433 36.4023C30.0771 36.2959 29.8641 36.2959 29.5979 36.2426C29.2785 36.1894 29.0123 36.1894 28.6928 36.1894C28.1604 36.1894 27.5748 36.2959 27.0424 36.3491C26.5633 36.4556 26.0841 36.5621 25.605 36.6153C25.2855 36.6686 25.0193 36.6686 24.6999 36.6153C24.5934 36.6153 24.5402 36.5621 24.4337 36.5621C24.3272 36.5621 24.2207 36.5088 24.1675 36.4556C24.061 36.4023 24.0078 36.3491 23.9013 36.2959C23.8481 36.2426 23.7948 36.1894 23.7416 36.1361C23.6883 36.0829 23.6351 35.9764 23.6351 35.9232C23.5818 35.87 23.5818 35.7635 23.5818 35.7102C23.5818 35.6037 23.5818 35.5505 23.5818 35.4441C23.5818 35.3376 23.6351 35.2843 23.6351 35.1778C23.6883 35.0181 23.7948 34.8584 23.9013 34.6987C24.0078 34.5922 24.061 34.4857 24.1675 34.4325C24.274 34.326 24.3272 34.2727 24.4337 34.1663C24.5934 34.0066 24.8064 33.9001 25.0193 33.7403C25.2323 33.6339 25.392 33.5274 25.605 33.4209C25.7647 33.3677 25.9244 33.3144 26.1373 33.2612C26.1906 33.2612 26.2971 33.208 26.3503 33.208C26.4036 33.208 26.4036 33.208 26.4568 33.208ZM26.9892 44.335H26.9359C26.9359 44.2818 26.9359 44.2818 26.9892 44.335ZM24.6467 42.6846C24.8064 42.6314 24.9661 42.5781 25.1258 42.5781H25.1791C25.1791 42.5781 25.1791 42.5781 25.1791 42.6314C25.1791 42.6846 25.2323 42.7379 25.2323 42.7911C25.2323 42.8976 25.2323 42.9508 25.2323 43.0573C25.2323 43.1638 25.1791 43.2703 25.1258 43.43C25.0193 43.643 24.9661 43.8026 24.8064 43.9624C24.8064 44.0156 24.7532 44.0156 24.7532 44.0689C24.6467 44.0156 24.5402 43.9091 24.4337 43.8559C24.1675 43.6962 23.9545 43.4832 23.6883 43.3235C24.061 43.0573 24.3272 42.8444 24.6467 42.6846ZM21.5588 41.7263C21.7185 41.6198 21.8782 41.4601 22.0379 41.3536C22.1977 41.2471 22.3573 41.1407 22.5171 41.0875C22.5703 41.0875 22.6236 41.0342 22.6768 41.0342H22.73H22.7833C22.7833 41.0342 22.8365 41.0342 22.8365 41.0875C22.8898 41.1407 22.8898 41.1407 22.943 41.1939C22.9962 41.2471 22.9962 41.3004 23.0495 41.3536C23.1027 41.4601 23.1027 41.5666 23.1559 41.6731C23.1559 41.8328 23.1559 41.9393 23.1559 42.099C23.1559 42.2587 23.1027 42.3652 23.0495 42.5249C23.0495 42.5781 22.9962 42.6314 22.943 42.6846C22.8365 42.5781 22.6768 42.4716 22.5703 42.3652C22.1977 42.099 21.8782 41.886 21.5588 41.7263ZM25.8712 44.8142C25.8179 44.8142 25.8179 44.761 25.7647 44.7077C25.8712 44.6545 25.9244 44.6012 26.0309 44.6012C26.3503 44.4948 26.6165 44.3883 26.9359 44.2818H26.9892C26.9892 44.335 26.9892 44.335 26.9892 44.3883C26.9359 44.548 26.8827 44.7077 26.8295 44.8675C26.7762 44.9739 26.723 45.1336 26.6698 45.2401C26.4036 45.1336 26.1373 44.9739 25.8712 44.8142ZM28.8526 46.0387C28.7993 46.0387 28.7461 46.0387 28.7461 46.0387C28.7461 46.0387 28.7461 46.0387 28.8526 46.0387C28.5864 45.9855 28.3734 45.9322 28.1072 45.879C28.054 45.879 28.0007 45.8258 27.9475 45.8258C28.1072 45.7725 28.2137 45.7193 28.3734 45.666C28.6928 45.5595 29.0123 45.4531 29.3317 45.3999C29.385 45.3999 29.385 45.3999 29.4382 45.3999C29.4382 45.5595 29.4382 45.7193 29.4382 45.879C29.4382 45.9322 29.4382 45.9855 29.4382 46.0387C29.4382 46.092 29.4382 46.092 29.4382 46.1452C29.172 46.092 29.0123 46.092 28.8526 46.0387ZM20.1213 18.0879C19.6954 18.0879 19.2162 18.0879 18.8436 18.3541C18.4709 18.6203 18.3112 19.0995 18.1514 19.4721C18.0982 19.7383 18.045 20.0045 17.9917 20.2175C17.832 21.229 17.7255 22.1874 17.6723 23.1989C17.619 23.9443 17.619 24.6896 17.5658 25.4349C17.5658 25.8077 17.5126 26.1803 17.5126 26.553C17.5126 26.8724 17.5126 27.2451 17.5126 27.5646C17.5126 27.7243 17.5126 27.884 17.5658 28.0437C17.5658 28.0969 17.619 28.1502 17.619 28.2034C17.619 28.2567 17.6723 28.2567 17.6723 28.3099C17.7255 28.3632 17.7788 28.3632 17.832 28.4164C17.9917 28.5229 18.1514 28.5229 18.3112 28.5229C18.5241 28.5229 18.6838 28.4697 18.8968 28.4697C19.1098 28.4164 19.2695 28.4164 19.4824 28.3632C19.8551 28.3099 20.1745 28.2034 20.5472 28.0969C20.8667 27.9905 21.1861 27.9372 21.5588 27.884H21.5055C21.5588 27.884 21.612 27.884 21.6653 27.884C21.6653 27.884 21.6653 27.884 21.612 27.884H21.6653H21.7185C21.612 28.0437 21.5055 28.2567 21.4523 28.4164C21.3458 28.6293 21.2926 28.8423 21.1861 29.002C20.9732 29.4279 20.8134 29.8538 20.6537 30.2798C20.6004 30.4927 20.494 30.6525 20.4407 30.8654C20.3875 31.0784 20.281 31.2381 20.2278 31.4511C20.1745 31.6108 20.2278 31.8237 20.3343 31.9834C20.3875 32.0899 20.4407 32.1432 20.5472 32.1964C20.6004 32.1964 20.6004 32.2497 20.6537 32.2497C20.7069 32.2497 20.8134 32.2497 20.8667 32.2497C20.9199 32.2497 20.9199 32.2497 20.9732 32.2497C21.0796 32.2497 21.1328 32.1964 21.2393 32.1964C21.3458 32.1432 21.4523 32.0899 21.5588 32.0899C21.6653 32.0367 21.825 31.9834 21.9314 31.9302C22.3573 31.7172 22.73 31.5043 23.1027 31.2381C23.5287 30.9719 23.9013 30.6525 24.3272 30.3863C24.6999 30.1201 25.0726 29.8007 25.4453 29.4812C25.605 29.3747 25.7647 29.215 25.9244 29.0553C25.9777 29.002 26.0841 28.8956 26.1373 28.8423C26.1906 28.7891 26.2971 28.7358 26.3503 28.7358C26.51 28.6826 26.6165 28.6293 26.7762 28.6293C26.9359 28.5761 27.1489 28.5761 27.3087 28.5229C27.7878 28.4697 28.2669 28.4164 28.7461 28.4164C29.2785 28.4164 29.8109 28.4164 30.29 28.4697C30.8224 28.4697 31.3016 28.5229 31.834 28.5229C32.3132 28.5229 32.8455 28.5229 33.3247 28.4697C33.5377 28.4697 33.8038 28.4164 34.0168 28.4164C34.1233 28.4164 34.2298 28.4164 34.3362 28.4164C34.3895 28.4164 34.4959 28.4164 34.5492 28.3632C34.6024 28.3632 34.6557 28.3632 34.7089 28.3099C34.7622 28.3099 34.8154 28.2567 34.8687 28.2034C35.1881 27.9905 35.2945 27.5113 35.3478 27.1387C35.401 26.8724 35.401 26.6063 35.4543 26.34C35.5607 25.3285 35.7204 24.2637 35.8269 23.2522C35.9334 22.2406 36.0399 21.229 36.1464 20.2175C36.1464 20.0045 36.1996 19.7916 36.1996 19.5786C36.2528 19.3124 36.3061 18.993 36.1464 18.7268C36.1464 18.6735 36.0932 18.6735 36.0932 18.6203C36.0399 18.5671 35.9867 18.5138 35.9334 18.4606C35.8269 18.4073 35.7204 18.3541 35.614 18.3541C35.2945 18.3009 34.9751 18.3009 34.6557 18.3009C34.3362 18.3009 34.0168 18.3009 33.7506 18.2476C32.6326 18.1944 31.5145 18.1944 30.4498 18.1411C29.4382 18.0879 28.3734 18.0879 27.3618 18.0347C25.2323 17.9814 23.0495 17.9282 20.9199 17.9282C20.7602 17.9282 20.6004 17.9282 20.4407 17.9282C20.3875 18.0879 20.2278 18.0879 20.1213 18.0879ZM21.2393 18.993C21.7717 18.993 22.3573 18.993 22.943 18.993C24.0078 18.993 25.0193 18.993 26.0841 18.993C28.2669 19.0462 30.4498 19.0462 32.6326 19.1527C33.0053 19.1527 33.3779 19.2059 33.6973 19.2059C34.2298 19.2592 34.8154 19.2592 35.3478 19.3124C35.3478 19.3124 35.3478 19.3124 35.401 19.3124C35.401 19.4721 35.401 19.6319 35.401 19.7916C35.401 20.0578 35.401 20.2707 35.3478 20.5369C35.2945 21.0693 35.2945 21.6549 35.2945 22.1874C35.2413 23.2522 35.1348 24.3169 35.0283 25.3818C34.9218 26.0206 34.8687 26.7127 34.6024 27.3516C34.6024 27.3516 34.6024 27.3516 34.6024 27.4048C34.6024 27.4581 34.5492 27.5113 34.4959 27.5646C34.3895 27.6178 34.2298 27.6178 34.1233 27.671C33.6441 27.7243 33.2182 27.7775 32.8455 27.7775C32.8988 27.7243 33.0053 27.671 33.0585 27.6178C33.2714 27.4581 33.4844 27.2451 33.6441 27.0322C33.7506 26.9257 33.7506 26.7659 33.6441 26.6595C33.5909 26.6063 33.5377 26.553 33.4312 26.553C33.3779 26.553 33.2714 26.553 33.2714 26.6063C33.0585 26.8192 32.8455 27.0322 32.6326 27.1919C32.4728 27.3516 32.3132 27.5113 32.1534 27.6178C32.1534 27.6178 32.1002 27.671 32.1002 27.7243C31.7807 27.7243 31.5145 27.7243 31.1951 27.7243C31.0354 27.7243 30.8757 27.7243 30.7159 27.7243C30.9289 27.5646 31.1418 27.3516 31.3548 27.1919C31.4613 27.0854 31.4613 26.9257 31.3548 26.8192C31.3016 26.7659 31.2483 26.7127 31.1418 26.7127C31.0886 26.7127 30.9822 26.7127 30.9289 26.7659C30.7159 26.9257 30.503 27.1387 30.29 27.2983C30.1836 27.3516 30.1303 27.4581 30.0238 27.5113C29.9706 27.5646 29.9706 27.5646 29.9173 27.6178L29.8641 27.671C29.4914 27.671 29.172 27.671 28.7993 27.671C28.9058 27.5646 29.0123 27.4581 29.172 27.3516C29.2785 27.2451 29.2785 27.0854 29.172 26.9789C29.1188 26.9257 29.0655 26.8724 28.9591 26.8724C28.9058 26.8724 28.7993 26.8724 28.7461 26.9257C28.5864 27.0322 28.4799 27.1919 28.3202 27.2983C28.2669 27.3516 28.2137 27.4048 28.1604 27.4581L28.1072 27.5113C28.1072 27.5113 28.1072 27.5646 28.054 27.6178C28.054 27.6178 28.054 27.6178 28.0007 27.6178C27.7345 27.6178 27.4683 27.671 27.2554 27.671C27.3087 27.6178 27.3618 27.5646 27.3618 27.5113C27.4151 27.4048 27.5216 27.3516 27.5748 27.2451C27.6281 27.1919 27.6813 27.1387 27.6813 27.0322C27.6813 26.9789 27.6813 26.8724 27.6281 26.8192C27.5748 26.7659 27.5216 26.7127 27.4151 26.7127C27.3618 26.7127 27.2554 26.7127 27.2022 26.7659C27.0424 26.9789 26.8827 27.1387 26.723 27.3516C26.6698 27.4581 26.6165 27.5113 26.5633 27.6178C26.2971 27.671 25.9777 27.671 25.7114 27.7775C25.5517 27.8308 25.392 27.9905 25.2855 28.0969C25.0193 28.3099 24.8064 28.5761 24.5402 28.7891C24.5402 28.7358 24.5402 28.6826 24.4869 28.6293C24.4337 28.5761 24.3804 28.5229 24.274 28.5229C24.2207 28.5229 24.1675 28.5229 24.1143 28.5761C23.7416 28.9488 23.4222 29.3215 23.1027 29.7474C22.943 29.9071 22.7833 30.1201 22.6236 30.333C22.5703 30.3863 22.5703 30.3863 22.5703 30.4395C22.5171 30.4395 22.5171 30.4927 22.4638 30.4927C22.1977 30.6525 21.9314 30.8122 21.612 30.9187C21.5588 30.9719 21.4523 30.9719 21.3991 31.0252C21.3458 31.0252 21.2926 31.0784 21.2393 31.0784C21.2393 31.0252 21.2393 31.0252 21.2926 30.9719C21.3458 30.9719 21.3991 30.9187 21.4523 30.8654C21.4523 30.8122 21.5055 30.8122 21.5055 30.8122L21.4523 30.8654C21.7717 30.546 22.0379 30.2266 22.3573 29.9071C22.4638 29.8007 22.4638 29.6409 22.3573 29.5344C22.3041 29.4812 22.2509 29.4279 22.1444 29.4279C22.0912 29.4279 21.9847 29.4279 21.9847 29.4812C21.8782 29.5877 21.7717 29.7474 21.6653 29.8538C21.7185 29.7474 21.7185 29.6409 21.7717 29.5344C21.8782 29.215 21.9847 28.8956 22.0912 28.6293C22.1444 28.6293 22.2509 28.6293 22.3041 28.5761C22.3573 28.4697 22.4638 28.4164 22.5703 28.3632C22.6768 28.2567 22.7833 28.1502 22.8898 28.0437C22.9962 27.9372 22.9962 27.7775 22.8898 27.671C22.8365 27.6178 22.7833 27.5646 22.6768 27.5646C22.6236 27.5646 22.5171 27.5646 22.5171 27.6178C22.4638 27.671 22.4106 27.7243 22.3573 27.7775C22.3573 27.7775 22.3573 27.7775 22.3573 27.7243C22.3573 27.671 22.4106 27.6178 22.4106 27.5646C22.4106 27.5113 22.4106 27.4581 22.4106 27.4581C22.4638 27.4048 22.5171 27.3516 22.5171 27.2983C22.5703 27.1919 22.5703 27.0854 22.5703 26.9789C22.5171 26.8724 22.4638 26.7659 22.3573 26.7127C22.2509 26.6595 22.1444 26.6595 21.9847 26.6595C21.9314 26.6595 21.8782 26.6595 21.825 26.6595C21.8782 26.6063 21.9314 26.553 21.9847 26.4998C22.0912 26.3933 22.0912 26.2336 21.9847 26.1271C21.9314 26.0738 21.8782 26.0206 21.7717 26.0206C21.7185 26.0206 21.612 26.0206 21.5588 26.0738C21.4523 26.1803 21.2926 26.2868 21.1861 26.4465C21.0796 26.553 21.0264 26.6595 20.9199 26.7127V26.7659C20.7602 26.8192 20.6004 26.8192 20.4407 26.8724C20.2278 26.9257 20.0681 26.9789 19.8551 27.0322C19.9616 26.9257 20.0681 26.7659 20.1745 26.6595C20.2278 26.6063 20.281 26.553 20.281 26.4998C20.281 26.4465 20.281 26.34 20.2278 26.2868C20.1745 26.2336 20.1213 26.1803 20.0681 26.1803C20.0148 26.1803 19.9083 26.1803 19.9083 26.2336C19.7486 26.3933 19.6421 26.553 19.4824 26.7659L19.4292 26.8192C19.3759 26.8724 19.376 26.9257 19.3227 26.9789C19.3227 27.0322 19.376 27.0854 19.376 27.0854C19.2695 27.0854 19.1098 27.1387 19.0033 27.1387C18.8968 27.1387 18.8436 27.1387 18.7371 27.1387C18.7903 27.0854 18.8436 27.0322 18.8968 26.9789C19.0565 26.7659 19.2695 26.553 19.4292 26.34C19.4824 26.2868 19.4824 26.1803 19.4824 26.1271C19.4824 26.0738 19.4292 25.9674 19.376 25.9674C19.3227 25.9141 19.2695 25.9141 19.2162 25.9141H19.163C19.1098 25.9141 19.0565 25.9674 19.0033 26.0206C18.8436 26.1803 18.7371 26.34 18.5774 26.553C18.5774 26.2868 18.5774 25.9674 18.5774 25.7012V25.6479C18.6306 25.5414 18.7371 25.435 18.7903 25.3285C18.8968 25.1688 19.0033 24.9558 19.163 24.7961C19.2695 24.6896 19.2162 24.4767 19.0565 24.4234C19.0033 24.3702 18.95 24.3702 18.8968 24.3702C18.7903 24.3702 18.7371 24.4234 18.6838 24.4767C18.6306 24.5299 18.5774 24.5832 18.5774 24.6896C18.5774 24.4767 18.5774 24.2637 18.5774 24.0508C18.5774 23.7845 18.5774 23.5716 18.5774 23.3054C18.5774 23.2522 18.6306 23.2522 18.6306 23.1989C18.7371 23.0392 18.8436 22.8794 18.95 22.773C19.0565 22.6665 19.0033 22.4535 18.8436 22.4003C18.7903 22.3471 18.7371 22.3471 18.6838 22.3471C18.6306 22.3471 18.5774 22.3471 18.5774 22.4003C18.6306 21.8147 18.6838 21.229 18.7371 20.6434C18.7903 20.111 18.8968 19.6318 19.1098 19.0995C19.163 18.993 19.2162 18.8865 19.2695 18.78C19.163 19.2592 19.2162 19.2059 19.2695 19.1527C19.2695 19.1527 19.3227 19.1527 19.3227 19.0995C19.4292 19.0462 19.4824 19.0462 19.5889 19.0462C20.1213 18.993 20.7069 19.0462 21.2393 18.993Z" fill="black"/>
<path d="M21.5053 23.9974C21.5585 24.1039 21.6118 24.2104 21.665 24.2636C21.7183 24.3168 21.7715 24.4233 21.8247 24.4765C21.8779 24.5298 21.9844 24.583 22.0377 24.6363C22.0909 24.6895 22.1974 24.7427 22.3039 24.7427C22.4103 24.796 22.5168 24.796 22.6233 24.8492C22.7298 24.8492 22.783 24.8492 22.8895 24.8492C23.0492 24.8492 23.2622 24.7427 23.4219 24.6895C23.5284 24.6363 23.5816 24.583 23.6349 24.5298C23.7413 24.4233 23.8478 24.3701 23.9543 24.2636C24.0608 24.1571 24.114 24.0506 24.2205 23.9441C24.327 23.8376 24.3802 23.7312 24.4334 23.5715C24.4867 23.465 24.5399 23.3585 24.5399 23.1988C24.5399 23.0923 24.5399 22.9858 24.5932 22.9326C24.5932 22.8261 24.5932 22.7729 24.5399 22.6664C24.5399 22.6131 24.4867 22.5599 24.4867 22.5067C24.4334 22.4002 24.4334 22.347 24.3802 22.2937C24.327 22.2405 24.2738 22.134 24.2205 22.0807C24.1673 21.9743 24.0608 21.9211 23.9543 21.8678C23.9011 21.8146 23.7946 21.7613 23.7413 21.7081C23.6349 21.6548 23.5816 21.6548 23.4752 21.6016C23.3687 21.5484 23.2089 21.5484 23.1024 21.4951C23.0492 21.4951 22.996 21.4951 22.8895 21.4951C22.8363 21.4951 22.8363 21.4951 22.783 21.4951C22.6766 21.4951 22.6233 21.4951 22.5168 21.5484C22.4636 21.5484 22.4103 21.6016 22.3571 21.6016C22.3039 21.6016 22.2507 21.6548 22.1974 21.7081C22.1442 21.7081 22.0377 21.7613 22.0377 21.7613C21.9844 21.8146 21.9312 21.8678 21.9312 21.9211C21.9312 21.9743 21.9312 22.0807 21.9312 22.134C21.9844 22.2405 22.1442 22.2937 22.3039 22.2405H22.3571C22.4103 22.2405 22.4103 22.2405 22.4636 22.2405C22.4103 22.2405 22.4103 22.2405 22.4103 22.2405C22.5168 22.2405 22.6233 22.2937 22.7298 22.2937C22.8895 22.2937 23.0492 22.347 23.2089 22.4002C23.3154 22.4535 23.3687 22.5067 23.4219 22.5599C23.4752 22.6131 23.5284 22.6664 23.5816 22.7196C23.6349 22.7729 23.6349 22.8261 23.6881 22.8794C23.6881 22.9326 23.7413 22.9858 23.7413 23.0391C23.7413 23.0923 23.7413 23.1456 23.7413 23.1988C23.7413 23.252 23.6881 23.3053 23.6881 23.3585C23.6349 23.465 23.5816 23.5715 23.5284 23.6247C23.4752 23.7312 23.3687 23.7845 23.2622 23.8376C23.2089 23.8909 23.1024 23.9441 23.0492 23.9974C22.996 23.9974 22.9428 24.0506 22.8895 24.0506C22.8363 24.0506 22.8363 24.0506 22.783 24.0506C22.7298 24.0506 22.6766 24.0506 22.6233 23.9974C22.5701 23.9441 22.5168 23.9441 22.4636 23.8909C22.4103 23.8376 22.4103 23.8376 22.3571 23.7845C22.3039 23.7312 22.3039 23.678 22.2507 23.6247C22.2507 23.5715 22.1974 23.5182 22.1974 23.465C22.1974 23.4117 22.1974 23.3585 22.1974 23.3053C22.1974 23.252 22.1974 23.252 22.1974 23.1988C22.1974 23.1456 22.2507 23.0923 22.2507 23.0391C22.2507 22.9858 22.3039 22.9326 22.3571 22.8794C22.4636 22.7196 22.4103 22.4535 22.1974 22.347C22.0377 22.2405 21.7715 22.2937 21.665 22.5067C21.6118 22.6131 21.5053 22.7729 21.452 22.8794C21.452 22.9858 21.3988 23.0923 21.3988 23.1988C21.3988 23.3053 21.3988 23.4117 21.3988 23.465C21.3988 23.5715 21.3988 23.678 21.452 23.7312C21.452 23.8376 21.452 23.9441 21.5053 23.9974ZM22.2507 22.1872C22.3039 22.1872 22.3039 22.1872 22.2507 22.1872V22.1872ZM23.7413 23.0391V22.9858C23.7413 23.0391 23.7413 23.0391 23.7413 23.0391ZM22.3571 23.8376C22.4103 23.8376 22.4103 23.8376 22.3571 23.8376V23.8376Z" fill="black"/>
<path d="M25.4988 24.157C25.552 24.2103 25.552 24.3167 25.6052 24.37C25.6584 24.4232 25.7117 24.5297 25.7649 24.5829C25.8182 24.6362 25.8714 24.6894 25.9247 24.7427C25.9779 24.7959 26.0844 24.8492 26.1376 24.9024C26.2973 24.9556 26.457 25.0088 26.6168 25.0088C26.7233 25.0088 26.7765 25.0088 26.8829 24.9556C26.9894 24.9556 27.0959 24.9024 27.2024 24.8492C27.4154 24.7959 27.5751 24.6894 27.7348 24.5297C27.788 24.4764 27.8945 24.4232 27.9478 24.37C28.001 24.3167 28.0542 24.2103 28.1074 24.157C28.1607 24.1038 28.2139 23.9973 28.2139 23.9441C28.2672 23.8376 28.2672 23.7311 28.3204 23.6246C28.3204 23.5182 28.3204 23.4649 28.3204 23.3584C28.3204 23.2519 28.3204 23.1987 28.2672 23.0922C28.2672 22.9858 28.2139 22.9325 28.2139 22.826C28.1607 22.7196 28.1074 22.6131 28.0542 22.5598C28.001 22.5066 27.9478 22.4001 27.8945 22.3469C27.8413 22.2937 27.7348 22.2404 27.6815 22.1872C27.6283 22.1339 27.5218 22.0807 27.4686 22.0807C27.3621 22.0274 27.3089 22.0274 27.2024 22.0274C27.1492 22.0274 27.0959 22.0274 27.0959 22.0274C27.0427 22.0274 26.9362 22.0274 26.8829 22.0807C26.8297 22.0807 26.7765 22.0807 26.7233 22.0807C26.6168 22.1339 26.5103 22.2404 26.5635 22.3469C26.5103 22.2937 26.4038 22.2404 26.2973 22.2404C26.1908 22.2404 26.0844 22.2937 26.0311 22.3469C25.9247 22.4533 25.8714 22.5598 25.7649 22.6663C25.7117 22.7728 25.6584 22.9325 25.6052 23.039C25.6052 23.0922 25.552 23.1455 25.552 23.2519C25.552 23.3584 25.4988 23.4649 25.4988 23.5714C25.4988 23.6778 25.4988 23.7843 25.4988 23.8908C25.4455 23.9973 25.4988 24.1038 25.4988 24.157ZM26.3506 24.0505C26.4038 24.0505 26.4038 24.0505 26.3506 24.0505V24.0505ZM26.6168 22.826C26.67 22.7196 26.67 22.6131 26.67 22.5066C26.7233 22.5598 26.7765 22.5598 26.8297 22.5598C26.9362 22.6663 27.0959 22.7196 27.2024 22.826C27.2024 22.826 27.2557 22.826 27.2557 22.8793C27.3089 22.9325 27.3621 22.9858 27.4154 23.039C27.4154 23.0922 27.4686 23.0922 27.4686 23.1455C27.4686 23.1987 27.5218 23.2519 27.5218 23.3052C27.5218 23.3584 27.5218 23.4117 27.5218 23.4649C27.5218 23.5182 27.4686 23.5714 27.4686 23.6246C27.4686 23.6778 27.4154 23.6778 27.4154 23.7311C27.3621 23.7843 27.3089 23.8376 27.2557 23.8908C27.2024 23.9441 27.1492 23.9973 27.0427 23.9973C26.9894 23.9973 26.9894 23.9973 26.9362 24.0505C26.8829 24.0505 26.7765 24.1038 26.7233 24.1038C26.67 24.1038 26.6168 24.1038 26.5635 24.1038C26.5103 24.1038 26.5103 24.1038 26.457 24.0505C26.457 24.0505 26.4038 24.0505 26.4038 23.9973L26.3506 23.9441C26.3506 23.8908 26.2973 23.8908 26.2973 23.8376C26.2973 23.7843 26.2441 23.7311 26.2441 23.6246C26.2441 23.5182 26.2441 23.4649 26.2441 23.3584C26.2441 23.3052 26.2973 23.1987 26.2973 23.1455C26.4038 23.1455 26.5103 22.9858 26.6168 22.826ZM29.7579 24.4232C29.8111 24.4764 29.8644 24.5829 29.9176 24.6362C30.0773 24.7959 30.237 24.9023 30.3968 25.0088C30.5033 25.0621 30.5565 25.0621 30.6629 25.1153C30.7694 25.1686 30.8227 25.1686 30.9292 25.1686C31.0357 25.1686 31.1421 25.1686 31.2486 25.1686C31.3018 25.1686 31.3018 25.1686 31.3551 25.1686C31.4615 25.1686 31.568 25.1153 31.6745 25.0621C31.8342 25.0088 31.9939 24.9023 32.1537 24.7427C32.2069 24.6894 32.2602 24.5829 32.3134 24.5297C32.3666 24.4232 32.4731 24.3167 32.5263 24.2103C32.5796 24.1038 32.5796 24.0505 32.6328 23.9441C32.6861 23.8376 32.6861 23.7843 32.6861 23.6778C32.6861 23.5714 32.7393 23.4649 32.6861 23.3052C32.6861 23.2519 32.6861 23.2519 32.6861 23.1987C32.6861 23.0922 32.6328 22.9858 32.6328 22.8793C32.5796 22.7728 32.5796 22.7196 32.5263 22.6131C32.4731 22.5598 32.4199 22.4533 32.3666 22.4001C32.3134 22.2937 32.2069 22.2404 32.1537 22.1872C32.0472 22.0807 31.8874 22.0274 31.781 21.9742C31.7278 21.9209 31.6213 21.9209 31.5148 21.8677C31.4083 21.8677 31.3551 21.8677 31.2486 21.8145C31.1421 21.8145 31.0889 21.8145 30.9824 21.8145C30.9292 21.8145 30.8759 21.8145 30.8227 21.8677C30.7694 21.8677 30.7162 21.9209 30.6629 21.9209C30.6629 21.9209 30.7162 21.9209 30.7162 21.8677C30.6097 21.8677 30.5033 21.9209 30.45 21.9742C30.3968 22.0274 30.3968 22.0274 30.3968 22.0807C30.2903 22.0807 30.237 22.1339 30.1838 22.1872C29.9708 22.4001 29.8111 22.6131 29.6514 22.8793C29.4384 23.2519 29.3852 23.6778 29.5449 24.0505C29.6514 24.2635 29.7047 24.3167 29.7579 24.4232ZM30.3435 23.5182C30.3435 23.4649 30.3435 23.4117 30.3968 23.3584C30.45 23.1987 30.5565 23.0922 30.6097 22.9858C30.6629 22.9325 30.7162 22.8793 30.7694 22.826C30.8227 22.7728 30.8759 22.6663 30.8759 22.5598C30.8759 22.5066 30.8759 22.5066 30.8759 22.4533C31.0357 22.5066 31.1954 22.5598 31.3551 22.6131C31.3551 22.6131 31.4083 22.6131 31.4083 22.6663C31.5148 22.7196 31.568 22.7728 31.6213 22.826C31.6745 22.8793 31.7278 22.9325 31.781 22.9858C31.8342 23.039 31.8343 23.0922 31.8874 23.1455C31.8874 23.1987 31.9407 23.3052 31.9407 23.3584C31.9407 23.4649 31.9407 23.5182 31.9407 23.6246C31.9407 23.7311 31.8874 23.7843 31.8874 23.8376C31.8343 23.8908 31.781 23.9973 31.7278 24.0505C31.6745 24.1038 31.6213 24.157 31.568 24.2103C31.5148 24.2103 31.5148 24.2635 31.4615 24.2635C31.4083 24.2635 31.3551 24.3167 31.2486 24.3167C31.1954 24.3167 31.0889 24.3167 31.0357 24.3167C30.9824 24.3167 30.8759 24.2635 30.8227 24.2635C30.7162 24.2103 30.6629 24.157 30.6097 24.1038C30.5565 24.0505 30.5033 23.9973 30.45 23.9441C30.3968 23.8908 30.3968 23.8376 30.3435 23.7843C30.3435 23.7311 30.3435 23.6778 30.2903 23.6778C30.3435 23.6246 30.3435 23.5714 30.3435 23.5182ZM30.3435 23.7311V23.7843C30.3435 23.7843 30.3435 23.7843 30.3435 23.7311Z" fill="black"/>
</g>
<defs>
<clipPath id="clip0_5251_9708">
<rect width="27" height="34.0201" fill="white" transform="translate(15 15)"/>
</clipPath>
</defs>
</svg>
