<svg width="57" height="57" viewBox="0 0 57 57" fill="none" xmlns="http://www.w3.org/2000/svg">
<rect width="57" height="56.1694" rx="7.5" fill="#F9ECFE"/>
<g clip-path="url(#clip0_5251_9688)">
<path d="M34.7204 16.4151C34.762 16.4151 34.8036 16.4151 34.8452 16.4151C34.9284 16.4567 35.0117 16.4567 35.0532 16.4567C35.1781 16.4983 35.3029 16.5399 35.4277 16.5815C35.5109 16.6231 35.5941 16.6647 35.6357 16.7063C35.7189 16.7479 35.7605 16.7895 35.8437 16.8727C35.8853 16.9143 35.927 16.9559 35.9685 16.9975C36.0102 17.0807 36.0934 17.1223 36.1349 17.2056C36.2182 17.2888 36.2598 17.372 36.343 17.4968C36.3846 17.58 36.4262 17.7048 36.4678 17.788C36.551 17.9544 36.5926 18.1208 36.6342 18.2873C36.6758 18.4953 36.7174 18.7033 36.759 18.9529C36.759 19.0778 36.9255 19.1609 37.0502 19.1194C37.0919 19.1194 37.1751 19.0778 37.1751 19.0361C37.2167 18.9945 37.2167 18.9113 37.2167 18.8697C37.1751 18.5369 37.0919 18.2041 36.967 17.8712C36.8422 17.58 36.759 17.2888 36.551 17.0391C36.5094 16.9975 36.4678 16.9143 36.4262 16.8727C36.3846 16.7895 36.3014 16.7479 36.2598 16.6647C36.2182 16.5399 36.0934 16.4567 36.0102 16.3735C35.8437 16.2487 35.6357 16.1654 35.4277 16.0822C35.3445 16.0406 35.1781 16.0406 35.0532 15.999C34.97 15.999 34.9284 15.999 34.8452 15.999C34.8036 15.999 34.762 15.999 34.762 15.999C34.6372 15.999 34.554 16.0822 34.554 16.207C34.5124 16.3319 34.6372 16.4151 34.7204 16.4151ZM41.3355 29.3125C41.2523 29.146 41.2107 28.938 41.1274 28.7716C41.0442 28.6052 40.961 28.4804 40.8778 28.3555C40.8778 28.3139 40.8362 28.3139 40.8362 28.2723C40.7946 28.1891 40.7114 28.1475 40.6698 28.1059C40.5866 28.0227 40.4202 27.9395 40.2954 27.8563C40.1706 27.8147 40.0874 27.7731 39.9625 27.7315C39.8377 27.6899 39.7545 27.6899 39.6297 27.6899C39.5881 27.6899 39.5049 27.6899 39.4633 27.6899C39.3385 27.6899 39.2137 27.6899 39.0472 27.7315C38.9225 27.7315 38.7976 27.7731 38.6728 27.8563C38.6312 27.8563 38.5896 27.8563 38.5896 27.8979C38.5064 27.9395 38.4648 28.0643 38.5064 28.1891C38.548 28.2723 38.6728 28.3139 38.7976 28.2723C38.8392 28.2723 38.8808 28.2723 38.964 28.2307C39.0889 28.2307 39.1721 28.1891 39.2969 28.1891C39.3801 28.1891 39.4217 28.1891 39.5049 28.1891C39.5881 28.1891 39.6713 28.1891 39.7545 28.2307C39.8377 28.2307 39.8793 28.2723 39.9625 28.2723C40.0457 28.2723 40.1289 28.3139 40.2122 28.3555C40.2954 28.3971 40.337 28.4387 40.4202 28.4804C40.4618 28.522 40.545 28.6052 40.5866 28.6884C40.753 28.938 40.8778 29.2293 41.0027 29.5621C41.0442 29.6869 41.0859 29.8117 41.1274 29.9365C41.1691 30.1445 41.2523 30.3942 41.2939 30.6022C41.3355 30.727 41.4603 30.8102 41.5435 30.7686C41.6683 30.727 41.7099 30.6022 41.7099 30.519C41.5435 30.1029 41.4603 29.6869 41.3355 29.3125ZM16.0401 34.5962C15.9153 34.1385 15.7905 33.6393 15.7073 33.1817C15.6657 32.9736 15.6241 32.7656 15.5409 32.5576C15.4993 32.4328 15.4993 32.308 15.4576 32.2248C15.4576 32.1415 15.416 32.0999 15.416 32.0167C15.416 31.8919 15.2912 31.8503 15.208 31.8503H15.1664C15.1248 31.8503 15.0832 31.8919 15.0416 31.9335C15 32.0167 15 32.0583 15 32.0999C15 32.1831 15 32.2248 15.0416 32.308C15.0416 32.4328 15.0832 32.5576 15.1248 32.6824C15.1664 32.8904 15.208 33.0985 15.2912 33.3065C15.416 33.7641 15.4993 34.2634 15.6241 34.721C15.6657 34.8458 15.7905 34.929 15.9153 34.8874C15.9985 34.8874 16.0817 34.721 16.0401 34.5962ZM21.2822 21.8652C21.3239 22.0317 21.3654 22.1565 21.4486 22.2813C21.4903 22.4061 21.6567 22.4477 21.7815 22.3645C21.8231 22.3229 21.8647 22.2813 21.9063 22.2397C21.9063 22.1565 21.9063 22.1149 21.9063 22.0733V22.0317C21.8647 21.9484 21.8231 21.8652 21.8231 21.7405C21.7815 21.6572 21.7815 21.574 21.7815 21.4908C21.7815 21.3244 21.7815 21.158 21.8231 20.9916C21.8647 20.8667 21.8647 20.7419 21.9063 20.6171C21.9479 20.4923 21.9895 20.3675 22.0311 20.2427C22.1143 20.0347 22.2392 19.8682 22.3224 19.7018C22.4471 19.5354 22.5304 19.369 22.6552 19.2026L22.6968 19.1609C22.6968 19.1609 22.6552 19.1609 22.6552 19.2026C22.6968 19.1609 22.7384 19.1194 22.7384 19.0778C22.7384 19.0361 22.7384 18.9529 22.7384 18.9113C22.6968 18.8281 22.6136 18.7865 22.5304 18.7865C22.4888 18.7865 22.4471 18.7865 22.4471 18.8281C22.4056 18.8697 22.3639 18.9113 22.3224 18.9529C22.2807 18.9945 22.2392 19.0361 22.1975 19.0778C22.1143 19.1609 22.0311 19.2441 21.9895 19.369C21.8231 19.6186 21.6983 19.8266 21.5735 20.1179C21.5319 20.2427 21.4903 20.3675 21.4071 20.4923C21.3654 20.6171 21.3239 20.7419 21.3239 20.8667C21.2822 21.0748 21.2407 21.3244 21.2822 21.5324C21.2407 21.6572 21.2407 21.7405 21.2822 21.8652ZM41.1691 39.1727C41.1274 39.1727 41.1274 39.1727 41.0859 39.1727C41.0027 39.1727 40.8778 39.2559 40.8778 39.3391C40.7946 39.5471 40.7114 39.7551 40.6282 39.9632C40.6282 40.0048 40.5866 40.0464 40.5866 40.0464C40.545 40.1296 40.5034 40.2128 40.4202 40.296C40.3786 40.3376 40.337 40.3792 40.2954 40.4208C40.2538 40.4624 40.1706 40.504 40.129 40.504C39.9625 40.5456 39.8377 40.5872 39.6713 40.6288C39.5049 40.6705 39.3385 40.6705 39.2137 40.6705C38.964 40.6705 38.756 40.7121 38.5064 40.7121C38.3816 40.7121 38.2568 40.7121 38.0904 40.7121C38.0072 40.7121 37.8823 40.7121 37.7991 40.7121C37.6743 40.7121 37.5911 40.7953 37.5911 40.9201C37.5911 41.0449 37.6743 41.1281 37.7991 41.1281C37.8823 41.1281 38.0072 41.1697 38.0904 41.1697C38.2568 41.1697 38.4232 41.1697 38.5896 41.1697C38.9225 41.1697 39.2553 41.1281 39.5465 41.0865C39.7129 41.0865 39.8793 41.0449 40.0457 41.0033C40.0874 41.0033 40.129 41.0033 40.129 40.9617C40.2122 40.9617 40.2538 40.9201 40.337 40.8785C40.4202 40.8369 40.5034 40.7953 40.545 40.7537C40.6282 40.7121 40.7114 40.6288 40.7946 40.5456C40.961 40.3792 41.0442 40.1296 41.1691 39.9216C41.2523 39.7551 41.2939 39.5471 41.3771 39.3807C41.3771 39.3391 41.2939 39.2143 41.1691 39.1727Z" fill="black"/>
<path d="M39.0888 39.7963C39.3801 39.7963 39.7545 39.8378 40.0041 39.6714C40.2121 39.5466 40.2537 39.297 40.3369 39.1306C40.3786 38.9226 40.4201 38.7145 40.4201 38.5065C40.4618 38.0905 40.4618 37.716 40.4618 37.3C40.4618 36.8007 40.5034 36.3015 40.4201 35.8022C40.4201 35.719 40.3369 35.6358 40.2954 35.5526C40.2537 35.4694 40.1705 35.3862 40.0873 35.3862C40.0041 35.3446 39.9209 35.303 39.8377 35.303C39.7545 35.303 39.6713 35.303 39.5881 35.303C39.3801 35.303 39.172 35.3446 38.964 35.3446C38.8392 35.3446 38.7144 35.3446 38.548 35.3862C38.548 35.2198 38.5064 35.0117 38.5064 34.8453C38.4648 34.6373 38.4231 34.4293 38.2984 34.2213C38.2984 34.2213 38.2984 34.2213 38.2984 34.1796C38.4648 34.1796 38.6312 34.138 38.7976 34.138C39.0056 34.0964 39.2136 34.0964 39.4633 34.0548C39.5465 34.0548 39.6297 34.0132 39.7129 34.0132C39.7961 34.0132 39.9209 33.9716 40.0041 33.93C40.1705 33.8884 40.2954 33.8052 40.4201 33.7636C40.5866 33.6804 40.6698 33.4724 40.7114 33.306C40.753 33.2228 40.753 33.1395 40.753 33.0563C40.753 33.0147 40.753 32.9731 40.753 32.8899C40.753 32.6819 40.753 32.5155 40.753 32.3075C40.753 31.8914 40.7114 31.4754 40.6698 31.0177C40.6698 30.8097 40.6282 30.5601 40.5866 30.352C40.5866 30.3104 40.545 30.2688 40.545 30.1856C40.5034 30.1024 40.5034 30.0192 40.4618 29.9776C40.4618 29.936 40.4201 29.8944 40.3786 29.8528C40.3369 29.8112 40.2954 29.728 40.2537 29.6864C40.2122 29.6864 40.2122 29.6447 40.1705 29.6447C40.0873 29.6032 40.0457 29.5615 39.9625 29.52C39.8377 29.3535 39.7129 29.3535 39.5465 29.3119H39.5049C39.3801 29.3119 39.2969 29.3119 39.172 29.3535C39.0888 29.3535 39.0056 29.3535 38.9224 29.3951C38.6728 29.3951 38.4648 29.4367 38.2151 29.4783C37.7991 29.52 37.3831 29.5615 36.967 29.6032C36.6342 29.6447 36.3014 29.6864 35.9685 29.728C35.9685 29.728 36.0101 29.728 36.0101 29.6864C36.0933 29.6032 36.1349 29.52 36.1349 29.4368C36.0933 29.0207 36.0517 28.6462 36.0101 28.2302C35.9685 28.0222 35.9685 27.8558 35.9269 27.6477C35.9269 27.523 35.8853 27.4397 35.8853 27.3149C35.8853 27.2733 35.8853 27.2317 35.8853 27.1901C35.8853 27.0653 35.8437 26.9405 35.8021 26.8573C35.7189 26.7325 35.6357 26.6076 35.5109 26.566C35.3861 26.4828 35.2612 26.4828 35.0948 26.4828C35.0116 26.4828 34.9284 26.4828 34.8036 26.4828C34.7204 26.4828 34.5956 26.4828 34.5124 26.4828C34.0963 26.4828 33.6803 26.5244 33.2642 26.566C32.8482 26.6076 32.4321 26.6492 31.9745 26.6492C31.5169 26.6908 31.1008 26.7325 30.6431 26.7325C30.2271 26.7325 29.8527 26.7325 29.4366 26.774C29.4366 26.7325 29.4366 26.6908 29.4366 26.6908C29.395 26.3164 29.3534 25.9419 29.3534 25.5675C29.3534 25.4011 29.3118 25.1931 29.3118 25.0267C29.3118 24.9434 29.2702 24.8187 29.2702 24.7355C29.2702 24.6522 29.2286 24.6106 29.187 24.5274V24.4858C29.187 24.4858 29.187 24.4442 29.1454 24.4442C29.3118 24.4442 29.4782 24.4442 29.6446 24.4442C30.0607 24.4442 30.4767 24.4026 30.9344 24.361C31.2672 24.3194 31.6001 24.2778 31.9329 24.1946C32.2657 24.153 32.557 24.0698 32.8482 23.9866C33.0146 23.9449 33.181 23.9034 33.3474 23.8202C33.5139 23.7785 33.6803 23.6953 33.8467 23.6121C34.2211 23.4457 34.554 23.1961 34.8452 22.9464C35.0116 22.78 35.1364 22.6136 35.3029 22.4472C35.4276 22.2808 35.5525 22.0727 35.6357 21.8647C35.7189 21.6983 35.7605 21.4903 35.8021 21.3239C35.8437 21.1159 35.8853 20.9078 35.8853 20.6582C35.8853 20.4502 35.8853 20.2006 35.8437 19.9925C35.8021 19.8261 35.8021 19.6597 35.7189 19.4933C35.6773 19.3269 35.5941 19.1604 35.5525 18.994C35.4693 18.8276 35.4276 18.7028 35.3444 18.5364C35.2196 18.3284 35.0532 18.0787 34.8452 17.9123C34.7204 17.7875 34.5956 17.7043 34.4708 17.6211C34.3459 17.5379 34.1795 17.4963 34.0547 17.4547C33.8883 17.4131 33.7219 17.3715 33.5971 17.3715C33.5555 17.3715 33.5555 17.3715 33.5139 17.3715C33.4723 17.3715 33.4722 17.3715 33.4306 17.3715C33.3474 17.2882 33.3474 17.2466 33.3058 17.205C33.2642 17.0802 33.181 16.9554 33.0978 16.8722C32.9314 16.6226 32.7234 16.4145 32.5154 16.2065C32.3905 16.0817 32.3073 15.9985 32.1825 15.9153C32.1409 15.8737 32.0993 15.8321 32.0161 15.7905C31.9329 15.7489 31.8913 15.6657 31.8081 15.6241C31.6833 15.5409 31.5584 15.4576 31.4336 15.416C31.184 15.2496 30.8928 15.1664 30.5599 15.0832C30.3935 15.0416 30.2687 15.0416 30.1023 15C30.0191 15 29.9775 15 29.8943 15C29.7695 15 29.6863 15 29.5614 15C29.2286 15.0416 28.8958 15.1248 28.6046 15.2496C28.3133 15.3744 28.0637 15.4993 27.8141 15.7073C27.6893 15.7905 27.5644 15.9153 27.4396 16.0401C27.3564 16.1233 27.2732 16.2481 27.19 16.3729C27.1068 16.4562 27.0652 16.581 27.0236 16.6642C26.982 16.6642 26.982 16.6226 26.9404 16.6226C26.8572 16.581 26.774 16.581 26.6908 16.5394C26.6076 16.5394 26.5243 16.4978 26.4411 16.4978C26.3579 16.4562 26.2331 16.4562 26.1083 16.4562C26.0251 16.4562 25.9835 16.4562 25.9003 16.4562C25.8171 16.4562 25.7338 16.4562 25.6506 16.4562C25.5674 16.4562 25.5258 16.4978 25.4426 16.4978C25.2346 16.5394 25.0682 16.6226 24.8602 16.7058C24.5689 16.8306 24.3609 16.997 24.1529 17.2466C23.9449 17.4963 23.8201 17.7875 23.7368 18.0787C23.6121 18.4116 23.5704 18.7444 23.6121 19.0772C23.6121 19.2437 23.6536 19.3685 23.6953 19.5349C23.6953 19.5765 23.7368 19.6181 23.7368 19.6597C23.5288 19.7013 23.3624 19.7845 23.196 19.8677C23.0296 19.9509 22.9048 20.0757 22.78 20.2422C22.6551 20.367 22.5719 20.5334 22.4887 20.6998C22.4471 20.783 22.4471 20.9078 22.4055 20.991C22.4055 21.0742 22.4055 21.1991 22.3639 21.2823C22.3639 21.3655 22.3639 21.4903 22.4055 21.5735C22.4055 21.6983 22.4887 21.8647 22.5303 21.9895C22.6136 22.1144 22.6551 22.2392 22.7383 22.3224C22.8216 22.4056 22.9048 22.4888 22.988 22.6136C23.196 22.8216 23.404 22.9881 23.6536 23.1545C23.8617 23.3209 24.1113 23.4457 24.3609 23.5289C24.4441 23.5705 24.5273 23.6121 24.6521 23.6537C24.7353 23.6953 24.8602 23.737 24.985 23.7785C25.1098 23.8202 25.193 23.8617 25.3178 23.8617C25.4426 23.9034 25.5674 23.9449 25.6923 23.9449C25.9003 23.9866 26.1083 24.0282 26.3163 24.0698C26.5243 24.1114 26.774 24.153 26.982 24.1946C27.19 24.2362 27.4396 24.2362 27.6476 24.2778C27.8973 24.3194 28.1469 24.3194 28.3965 24.3194C28.5214 24.3194 28.6461 24.3194 28.8126 24.3194L28.771 24.361V24.4026C28.7293 24.4858 28.7293 24.569 28.7293 24.6522C28.7293 24.7355 28.7293 24.8187 28.6878 24.9019C28.6878 25.1099 28.6878 25.2763 28.6878 25.4843C28.6878 25.8587 28.7293 26.2748 28.8126 26.6492C28.5629 26.6492 28.2717 26.6492 28.0221 26.6492C27.19 26.6492 26.3579 26.6492 25.5258 26.6908C25.1098 26.6908 24.6521 26.6908 24.2361 26.7325C23.8201 26.7325 23.404 26.774 22.988 26.774C22.5719 26.774 22.1559 26.8157 21.7398 26.8573C21.6566 26.8573 21.5318 26.8573 21.4486 26.8989C21.3238 26.8989 21.2406 26.9405 21.1158 26.9821C21.0326 27.0237 20.9494 27.0653 20.9078 27.1069C20.8662 27.1485 20.8246 27.2317 20.783 27.2733C20.7413 27.3565 20.7413 27.4397 20.6998 27.523C20.6998 27.6477 20.6998 27.7726 20.6998 27.8974C20.7413 28.2718 20.783 28.6462 20.8662 28.9791C20.9078 29.1455 20.9494 29.3535 20.9494 29.52C20.9494 29.5615 20.991 29.6447 20.991 29.6864C20.8246 29.6864 20.6998 29.6864 20.5333 29.728C20.1173 29.728 19.7013 29.728 19.2852 29.7696C19.0772 29.7696 18.8276 29.8112 18.6195 29.8112C18.4531 29.8112 18.2867 29.8528 18.0787 29.8528C17.9955 29.8528 17.9123 29.936 17.8707 30.0192C17.6626 30.0192 17.4962 30.0608 17.2882 30.0608C17.205 30.0608 17.1218 30.1024 17.0386 30.1024C16.997 30.1024 16.997 30.1024 16.9554 30.1024C16.8722 30.144 16.8306 30.144 16.7473 30.1856C16.7057 30.1856 16.6641 30.2272 16.6641 30.2688C16.6225 30.3104 16.5809 30.352 16.5393 30.3936C16.4977 30.4353 16.4561 30.5185 16.4561 30.5601C16.4145 30.6433 16.4145 30.6849 16.4145 30.7681C16.3729 31.0177 16.4145 31.2673 16.4561 31.517C16.4561 31.725 16.4977 31.933 16.4977 32.141C16.5393 32.5571 16.5809 33.0147 16.6641 33.4308C16.7057 33.6388 16.7473 33.8884 16.8306 34.0964C16.9138 34.3045 16.997 34.5125 17.205 34.6373C17.2882 34.7205 17.3714 34.7621 17.4546 34.8037C17.5794 34.8453 17.7458 34.8869 17.8707 34.8869H17.9123V34.9285C17.9123 34.9701 17.9123 35.0533 17.8707 35.0949C17.8707 35.1365 17.8707 35.2198 17.8707 35.2614C17.8707 35.511 17.9123 35.719 17.9539 35.9686C17.9539 35.9686 17.9539 35.9686 17.9539 36.0103C17.7874 36.0518 17.6626 36.0518 17.4962 36.0935C17.4546 36.0935 17.413 36.0935 17.3714 36.0935C17.3298 36.0935 17.2882 36.0935 17.2466 36.0935C17.0802 36.2183 16.997 36.3015 17.0386 36.4263C16.997 36.4263 16.9554 36.4263 16.9138 36.4263C16.8306 36.4263 16.7473 36.4679 16.6641 36.4679C16.5809 36.4679 16.4977 36.5095 16.3729 36.5095C16.2897 36.5095 16.2481 36.5511 16.1649 36.5927C16.0817 36.5927 16.0401 36.6343 15.9985 36.6759C15.8321 36.8007 15.7488 36.9671 15.7488 37.1752C15.7488 37.3 15.7488 37.4248 15.7904 37.508C15.8321 37.716 15.8321 37.9656 15.8737 38.1737C15.9569 38.5897 16.0817 39.0058 16.2065 39.3802C16.2897 39.5882 16.3729 39.7963 16.4561 40.0043C16.4977 40.0875 16.5809 40.1707 16.6225 40.2539C16.7057 40.3371 16.7889 40.4203 16.8722 40.5035C16.9138 40.5035 16.9554 40.5451 16.9554 40.5451C17.0386 40.5867 17.0802 40.5867 17.1634 40.6283C17.2882 40.6699 17.413 40.7116 17.5378 40.7116C17.7458 40.7531 17.9539 40.7531 18.1619 40.7531C18.3699 40.7531 18.5779 40.7531 18.7859 40.7531C19.2436 40.7531 19.6596 40.7531 20.1173 40.7116C20.5333 40.7116 20.9494 40.7116 21.407 40.6699C22.3223 40.6283 23.2376 40.6283 24.1945 40.5867C24.4025 40.5867 24.6106 40.5867 24.777 40.5451C24.9434 40.5451 25.1098 40.5035 25.2346 40.4619C25.4842 40.4203 25.6923 40.2955 25.8587 40.1291C26.0251 39.9211 26.0667 39.6714 26.1083 39.4634C26.1499 39.2554 26.1499 39.0058 26.1915 38.7977C26.2331 38.3817 26.2331 37.9656 26.2331 37.5496C26.2331 37.3416 26.2331 37.1335 26.2331 36.9256C26.2331 36.7591 26.2331 36.6343 26.1915 36.4679C26.1915 36.3431 26.1499 36.2183 26.1083 36.135C26.0667 36.0935 26.0667 36.0103 26.0251 35.9686C25.9835 35.9271 25.9419 35.8854 25.9003 35.8438C25.8587 35.8438 25.8587 35.8022 25.8171 35.8022C25.7755 35.7606 25.6923 35.7606 25.6091 35.719C25.5674 35.719 25.5258 35.719 25.5258 35.719C25.4842 35.719 25.401 35.719 25.3594 35.719C25.2762 35.719 25.193 35.719 25.0682 35.719C24.985 35.719 24.9434 35.719 24.8602 35.719C24.6938 35.719 24.5273 35.719 24.4025 35.719C24.3609 35.719 24.2777 35.719 24.2361 35.719C24.2777 35.6774 24.3193 35.6358 24.3193 35.5526C24.3193 35.511 24.3193 35.4278 24.3193 35.3862C24.3193 35.2198 24.2777 35.0949 24.2361 34.9285C24.2361 34.8453 24.1945 34.7621 24.1529 34.6373C24.1529 34.6373 24.1529 34.6373 24.1529 34.5957C24.1529 34.5541 24.1529 34.5541 24.1113 34.5541C24.1529 34.5541 24.1529 34.5541 24.1945 34.5541C24.6106 34.4709 25.0266 34.4293 25.4426 34.3045C25.5674 34.2628 25.6506 34.2628 25.7755 34.1796C25.8171 34.1796 25.8587 34.138 25.8587 34.138C25.9003 34.0964 25.9419 34.0548 25.9835 34.0132C26.0667 33.9716 26.1083 33.8468 26.1083 33.7636C26.1083 33.722 26.1083 33.722 26.1499 33.6804C26.1499 33.5972 26.1499 33.5556 26.1915 33.4724C26.1915 33.3892 26.1915 33.306 26.1915 33.1811C26.1915 33.0563 26.1915 32.9315 26.1915 32.8067C26.1915 32.3907 26.1499 31.9746 26.1083 31.6002C26.0667 31.1425 26.0251 30.6849 25.9003 30.2272C25.9003 30.1856 25.9003 30.1856 25.8587 30.144C25.8587 30.1024 25.8171 30.0192 25.7755 29.9776C25.7338 29.936 25.7338 29.8944 25.6923 29.8528C25.6506 29.8112 25.6091 29.728 25.5258 29.6864C25.4842 29.6864 25.4842 29.6447 25.4426 29.6447C25.3594 29.6032 25.3178 29.5615 25.2346 29.5615C25.1098 29.52 24.985 29.52 24.8602 29.52C24.8186 29.52 24.8186 29.52 24.777 29.52C24.6938 29.52 24.6521 29.52 24.5689 29.52C24.4441 29.52 24.3193 29.52 24.1945 29.52C23.7368 29.5615 23.3208 29.5615 22.8632 29.6032C22.3639 29.6447 21.8647 29.6447 21.3654 29.6864C21.3654 29.6032 21.3654 29.52 21.3654 29.4368C21.3654 29.2287 21.3238 29.0623 21.2822 28.8543C21.2406 28.4798 21.2406 28.0638 21.2406 27.6894V27.6477C21.2822 27.6477 21.2822 27.6062 21.3238 27.6062C21.6983 27.4397 22.1143 27.3981 22.5303 27.3149C22.7383 27.2733 22.988 27.2733 23.196 27.2317C23.404 27.2317 23.6536 27.1901 23.8617 27.1901C24.3193 27.1901 24.777 27.1485 25.2346 27.1485C26.1083 27.1485 26.982 27.1485 27.8557 27.1069C28.771 27.1069 29.6446 27.0653 30.5599 27.0653C31.0176 27.0653 31.4336 27.0653 31.8913 27.0653C32.3073 27.0653 32.765 27.0653 33.181 27.0653C33.4306 27.0653 33.6803 27.0653 33.9299 27.0653C34.1795 27.0653 34.4291 27.0653 34.6788 27.1069C34.762 27.1069 34.8036 27.1485 34.8868 27.1485C34.8868 27.1901 34.9284 27.1901 34.9284 27.2317C35.0116 27.3981 35.0116 27.6062 35.0532 27.8142C35.0948 28.0222 35.0948 28.2718 35.0948 28.4798C35.0948 28.7711 35.0948 29.0207 35.0948 29.3119C35.0948 29.4783 35.178 29.6032 35.3029 29.6447C34.8452 29.6864 34.4291 29.728 33.9715 29.8112C33.7219 29.8528 33.5139 29.8528 33.2642 29.936C33.1394 29.9776 33.0146 29.9776 32.8898 30.0192C32.8066 30.0192 32.765 30.0192 32.7234 30.0608H32.6818C32.4737 30.0608 32.2657 30.1024 32.0993 30.144C32.0577 30.144 32.0161 30.144 31.9745 30.1856C31.9329 30.1856 31.8913 30.2272 31.8081 30.2272C31.7249 30.2688 31.6833 30.2688 31.6001 30.3104C31.5584 30.3104 31.5169 30.352 31.5169 30.352C31.4752 30.3936 31.4336 30.4353 31.3504 30.4768C31.3088 30.5185 31.2672 30.56 31.2256 30.6433C31.184 30.6849 31.184 30.7681 31.184 30.8097C31.1424 30.9761 31.184 31.1425 31.2256 31.309C31.2256 31.3922 31.2672 31.517 31.2672 31.6002C31.3088 31.8082 31.3504 32.0162 31.392 32.1826C31.5169 32.6403 31.6417 33.0563 31.8497 33.4308C31.9329 33.5556 32.0161 33.6388 32.0993 33.722C32.1825 33.8052 32.3073 33.8884 32.3905 33.93C32.4321 33.93 32.4737 33.9716 32.5154 33.9716C32.5986 34.0132 32.6818 34.0132 32.7234 34.0548C32.765 34.0548 32.8066 34.0964 32.8898 34.0964C32.973 34.138 33.0978 34.138 33.181 34.138H33.2226C33.2226 34.1796 33.181 34.1796 33.181 34.2213V34.2628C33.0978 34.5125 33.0978 34.7621 33.1394 35.0117C33.1394 35.2198 33.3058 35.3446 33.4722 35.3446C33.5555 35.3446 33.6387 35.303 33.7219 35.2614C33.7635 35.2198 33.8051 35.1782 33.8051 35.0949C33.8051 35.0533 33.8051 34.9701 33.8051 34.9285C33.7635 34.6789 33.7219 34.4293 33.5971 34.2213C33.5971 34.2213 33.5971 34.1796 33.5555 34.1796C33.9715 34.2213 34.3459 34.2213 34.762 34.2213C35.2196 34.2213 35.6773 34.1796 36.0933 34.138C36.6342 34.0964 37.1334 34.0548 37.6743 34.0132V34.0548C37.6743 34.0964 37.6743 34.0964 37.6327 34.138C37.6327 34.2213 37.5911 34.3045 37.5911 34.346C37.5911 34.4709 37.5911 34.5541 37.5911 34.6789C37.5911 34.8453 37.6327 35.0533 37.6327 35.2198C37.1334 35.2614 36.6342 35.303 36.1349 35.3446C35.5525 35.3862 34.97 35.3862 34.3876 35.4278C34.0963 35.4278 33.7635 35.4278 33.4722 35.4694C33.2226 35.4694 32.973 35.511 32.7234 35.511C32.7234 35.511 32.7234 35.511 32.765 35.511C32.6402 35.511 32.557 35.5526 32.5154 35.6358C32.3905 35.6358 32.2657 35.6358 32.1409 35.6358C31.9329 35.6358 31.7665 35.6358 31.5584 35.6774C31.4336 35.6774 31.3088 35.719 31.2256 35.719C31.1424 35.719 31.0592 35.8022 30.976 35.8438C30.9344 35.8438 30.9344 35.8854 30.8928 35.8854C30.8512 35.9271 30.8096 35.9686 30.8096 36.0103C30.768 36.0518 30.768 36.135 30.768 36.1767C30.768 36.2183 30.768 36.3015 30.768 36.3431C30.768 36.3847 30.768 36.4679 30.768 36.5511C30.768 36.5927 30.768 36.6343 30.768 36.6759C30.768 36.8007 30.8096 36.8839 30.8096 37.0088C30.8512 37.2168 30.8928 37.4248 30.9344 37.6328C31.0176 38.0073 31.1008 38.3817 31.2672 38.7561C31.3088 38.8809 31.392 39.0058 31.4336 39.1306C31.4336 39.1722 31.4752 39.1722 31.4752 39.2138C31.5169 39.297 31.6001 39.3386 31.6417 39.4218C31.8081 39.5882 32.0577 39.6298 32.2657 39.6714C32.5154 39.6714 32.765 39.6714 33.0146 39.7131C33.4722 39.7131 33.8883 39.7131 34.3459 39.7131C35.178 39.7131 36.0517 39.7131 36.8838 39.7546C37.3414 39.7546 37.7575 39.7546 38.2151 39.7963C38.6728 39.7546 38.8808 39.7963 39.0888 39.7963ZM28.1885 23.8202C28.2717 23.737 28.3549 23.6953 28.4381 23.6121C28.5629 23.5289 28.6878 23.4041 28.8126 23.2793C28.8958 23.1961 28.8958 23.0297 28.8126 22.9464C28.771 22.9048 28.6878 22.8632 28.6461 22.8632C28.6046 22.8632 28.5214 22.9048 28.4797 22.9048C28.3133 23.0713 28.1053 23.1961 27.8973 23.3625C27.8141 23.4457 27.6893 23.4873 27.6061 23.5705C27.5644 23.6121 27.5229 23.6537 27.4812 23.6953L27.4396 23.737C27.2316 23.737 27.0236 23.6953 26.774 23.6953C26.6908 23.6953 26.5659 23.6537 26.4827 23.6537C26.5243 23.6121 26.6076 23.5705 26.6491 23.5289C26.8156 23.4041 26.982 23.2377 27.1484 23.1129C27.2316 23.0297 27.2316 22.8632 27.1484 22.78C27.1068 22.7384 27.0652 22.6968 26.982 22.6968C26.9404 22.6968 26.8572 22.7384 26.8156 22.7384C26.6491 22.8632 26.4827 23.0297 26.3163 23.1545C26.2331 23.2377 26.1499 23.3209 26.0667 23.4041C26.0251 23.4457 25.9835 23.4873 25.9419 23.4873C25.9419 23.4873 25.9419 23.4873 25.9003 23.5289C25.9419 23.5289 25.8587 23.5289 25.8171 23.5289C25.6506 23.4873 25.5258 23.4457 25.3594 23.4041C25.4426 23.3625 25.5258 23.2793 25.5674 23.1961C25.7338 23.0297 25.9003 22.9048 26.0667 22.7384C26.1499 22.6552 26.1499 22.4888 26.0667 22.4056C26.0251 22.364 25.9419 22.3224 25.9003 22.3224C25.8587 22.3224 25.7755 22.364 25.7338 22.364C25.5674 22.5304 25.401 22.6552 25.2346 22.8216C25.1514 22.9048 25.0682 22.9881 24.985 23.0713C24.985 23.1129 24.985 23.1545 24.9434 23.1545L24.9018 23.1961C24.8602 23.1961 24.8186 23.1545 24.8186 23.1545H24.8602C24.8602 23.1545 24.8186 23.1545 24.8186 23.1129C24.6938 23.0713 24.6106 23.0297 24.4857 22.9464C24.4025 22.9048 24.3193 22.8632 24.2361 22.8216C24.3193 22.7384 24.4025 22.6552 24.5273 22.572C24.6938 22.4056 24.8602 22.2392 25.0266 22.1144C25.1098 22.0312 25.1098 21.8647 25.0266 21.7815C24.985 21.7399 24.9018 21.6983 24.8602 21.6983C24.8186 21.6983 24.7353 21.7399 24.6938 21.7815C24.5273 21.9063 24.3609 22.0727 24.2361 22.2392C24.1529 22.3224 24.1113 22.364 24.0281 22.4472C23.9865 22.4888 23.9449 22.5304 23.8617 22.572C23.8201 22.5304 23.7785 22.5304 23.7368 22.4888C23.6536 22.4056 23.5704 22.364 23.4872 22.2808C23.404 22.1976 23.3624 22.1559 23.3208 22.0727C23.3208 22.0727 23.3208 22.0727 23.3208 22.0312L23.3624 21.9895C23.4456 21.9479 23.4872 21.8647 23.5704 21.7815C23.7368 21.6151 23.8617 21.4903 24.0281 21.3239C24.1113 21.2407 24.1113 21.0742 24.0281 20.991C23.9865 20.9494 23.9033 20.9078 23.8617 20.9078C23.8201 20.9078 23.7368 20.9078 23.6953 20.9494C23.5288 21.1159 23.404 21.2407 23.2376 21.4071C23.196 21.4487 23.1128 21.5319 23.0712 21.5735C23.0296 21.4903 23.0296 21.4071 22.988 21.3239C22.988 21.2407 22.988 21.1574 22.988 21.0742C22.988 20.9494 23.0296 20.8662 23.0712 20.783C23.1128 20.6998 23.1544 20.6166 23.2376 20.5334C23.2792 20.4502 23.3624 20.4086 23.4456 20.3254C23.5288 20.2838 23.6121 20.2422 23.6953 20.1589C23.7785 20.1174 23.9033 20.1174 23.9865 20.0757C24.0281 20.0757 24.0697 20.0757 24.1113 20.0757C24.2361 20.0757 24.3193 20.0757 24.4441 20.0757C24.4857 20.0757 24.5689 20.1174 24.6106 20.1174C24.6521 20.1174 24.7353 20.1589 24.777 20.2006C24.8602 20.2422 24.985 20.2838 25.0682 20.3254C25.0682 20.3254 25.0682 20.367 25.1098 20.367C25.193 20.4502 25.2762 20.4918 25.401 20.4502C25.4842 20.4086 25.5259 20.2422 25.4842 20.1589C25.4426 20.1174 25.4426 20.0757 25.401 20.0757C25.401 20.0342 25.3594 20.0342 25.3594 19.9925C25.3178 19.9509 25.2762 19.8677 25.2346 19.8261C25.193 19.7845 25.1514 19.7845 25.1098 19.7429C25.0682 19.7013 24.985 19.6597 24.9018 19.6181C24.7353 19.5349 24.5689 19.5349 24.4025 19.4933C24.3609 19.4933 24.3609 19.4933 24.3193 19.4933C24.3193 19.4101 24.2777 19.2853 24.2777 19.2021C24.2777 19.1188 24.2777 19.0356 24.2777 18.994C24.2777 18.8692 24.2777 18.7444 24.2777 18.6196C24.3193 18.4532 24.3609 18.2451 24.4441 18.0787C24.5273 17.9539 24.5689 17.7875 24.6938 17.6627C24.777 17.5379 24.8602 17.4547 24.985 17.3715C25.1098 17.2882 25.193 17.2466 25.3178 17.1634C25.401 17.1218 25.4842 17.1218 25.5674 17.0802C25.6506 17.0386 25.7755 17.0386 25.8587 17.0386C25.9419 17.0386 26.0251 17.0386 26.1083 17.0386C26.1915 17.0386 26.3163 17.0386 26.3995 17.0386C26.5659 17.0802 26.6908 17.0802 26.8156 17.1218C26.774 17.1634 26.774 17.2466 26.7323 17.2882C26.6491 17.4547 26.6491 17.5379 26.6076 17.6211C26.5659 17.7459 26.5243 17.8707 26.5243 17.9955C26.4827 18.1619 26.5659 18.3284 26.7323 18.37C26.8988 18.4116 27.1068 18.3284 27.1484 18.1619C27.19 17.9955 27.2316 17.8707 27.2732 17.7043C27.3148 17.5795 27.3564 17.4963 27.398 17.3715C27.4812 17.2466 27.5228 17.1218 27.6061 16.997C27.6893 16.8722 27.7725 16.789 27.8141 16.6642C27.9805 16.4978 28.1469 16.3313 28.3133 16.1649C28.4797 16.0401 28.6878 15.9153 28.8542 15.8321C28.979 15.7905 29.1038 15.7489 29.2286 15.7073C29.3534 15.6657 29.4366 15.6657 29.5614 15.6241C29.6863 15.6241 29.8111 15.6241 29.9359 15.5825C30.0607 15.5825 30.1439 15.5825 30.2687 15.5825C30.5184 15.6241 30.7264 15.6657 30.9344 15.7489C31.1008 15.8321 31.2256 15.8737 31.3504 15.9569C31.4752 16.0401 31.6001 16.1233 31.7249 16.2065C31.8497 16.2897 31.9745 16.4145 32.0993 16.4978C32.2241 16.581 32.3073 16.7058 32.4321 16.8306C32.5154 16.9138 32.6402 17.0386 32.7234 17.1634C32.765 17.205 32.8482 17.2882 32.8898 17.3298C32.557 17.4131 32.2657 17.5379 32.0161 17.7043C31.8913 17.7875 31.8497 17.9539 31.8913 18.1203C31.9745 18.2451 32.1409 18.2868 32.3073 18.2451C32.3905 18.2035 32.5154 18.1203 32.6402 18.0787C32.8066 17.9955 33.0146 17.9539 33.2226 17.9123C33.3474 17.9123 33.5139 17.9123 33.6387 17.9123C33.7635 17.9539 33.8883 17.9539 34.0131 18.0371C34.1379 18.0787 34.2627 18.1619 34.3459 18.2451C34.4708 18.37 34.5956 18.4948 34.7204 18.6196C34.8036 18.7028 34.8452 18.8276 34.9284 18.9108C34.97 18.994 35.0116 19.1188 35.0948 19.2021C35.1364 19.2853 35.1364 19.3269 35.178 19.4101C35.2196 19.4933 35.2196 19.5349 35.2612 19.6181C35.3029 19.7429 35.3444 19.9093 35.3444 20.0342C35.3444 20.1589 35.3861 20.2838 35.3861 20.4086C35.3861 20.5334 35.3861 20.6582 35.3861 20.783C35.3861 20.9078 35.3444 21.0327 35.3029 21.1574C35.2612 21.2823 35.2196 21.3655 35.178 21.4903C35.1364 21.5735 35.0948 21.6567 35.0532 21.7399C34.97 21.8647 34.8868 21.9895 34.8036 22.1144C34.762 22.1559 34.7204 22.2392 34.6372 22.2808C34.554 22.4056 34.4291 22.4888 34.3043 22.6136C34.1379 22.7384 33.9715 22.8632 33.7635 22.9464C33.8883 22.8216 33.9715 22.6968 34.0963 22.5304C34.1379 22.4888 34.1379 22.4056 34.1379 22.364C34.1379 22.3224 34.0963 22.2392 34.0547 22.2392C33.8883 22.2808 33.8467 22.2808 33.8051 22.2808H33.7635C33.6803 22.2808 33.6387 22.3224 33.6387 22.364C33.5555 22.4888 33.4723 22.572 33.3474 22.6968L33.389 22.6552C33.2226 22.8632 33.0562 23.0713 32.8898 23.2793L32.8482 23.3209C32.8482 23.3209 32.8482 23.3625 32.8066 23.4041C32.7234 23.4457 32.5986 23.4873 32.5154 23.4873C32.3489 23.5289 32.1825 23.5705 32.0161 23.6121C31.9745 23.6121 31.9329 23.6121 31.8913 23.6537C31.9329 23.6121 31.9329 23.6121 31.9745 23.5705C32.1409 23.3625 32.3073 23.1961 32.4737 22.9881C32.5154 22.9464 32.557 22.9048 32.557 22.8216C32.557 22.78 32.557 22.6968 32.5154 22.6552C32.4737 22.6136 32.3905 22.572 32.3489 22.572C32.3073 22.572 32.2241 22.572 32.1825 22.6552C32.0161 22.8632 31.8497 23.0297 31.6417 23.2377C31.5584 23.3209 31.4752 23.4041 31.4336 23.4873C31.392 23.5289 31.3504 23.5705 31.3088 23.6121L31.2672 23.6537C31.2672 23.6537 31.2672 23.6953 31.2256 23.6953C30.8928 23.737 30.5599 23.7785 30.2271 23.7785C30.2687 23.737 30.2687 23.737 30.3103 23.6953C30.4351 23.5289 30.6016 23.3625 30.7264 23.1961C30.8096 23.1129 30.768 22.9464 30.6431 22.8632C30.6016 22.8216 30.5599 22.8216 30.5184 22.8216H30.4767C30.3935 22.8216 30.3935 22.8632 30.3519 22.9048C30.2271 23.0713 30.1023 23.2377 29.9359 23.4041C29.8527 23.4873 29.8111 23.5705 29.7695 23.6537C29.7695 23.6953 29.7278 23.737 29.7278 23.737C29.6446 23.737 29.5614 23.737 29.4366 23.737C28.9374 23.8617 28.5629 23.8202 28.1885 23.8202ZM25.2346 39.7546C25.2346 39.7963 25.2346 39.7963 25.2346 39.7546V39.7546ZM25.2346 39.7546L25.2762 39.7131C25.2762 39.7546 25.2762 39.7546 25.2346 39.7546ZM25.3178 36.4679C25.3594 36.4679 25.401 36.5095 25.4842 36.5095C25.4842 36.5095 25.4842 36.5095 25.5258 36.5095C25.5258 36.5095 25.5258 36.5511 25.5674 36.5511C25.6091 36.6343 25.6091 36.6759 25.6091 36.7591C25.6506 37.3416 25.6091 37.9241 25.5674 38.5065C25.5674 38.6313 25.5258 38.7561 25.5258 38.8809C25.5258 38.9226 25.5258 38.9226 25.5258 38.9642C25.5258 39.0058 25.5258 39.0058 25.5258 39.0474V39.089C25.5258 39.0474 25.5258 39.0058 25.5258 39.0058C25.4842 39.2138 25.4426 39.4218 25.401 39.6298C25.401 39.6714 25.3594 39.6714 25.3594 39.7131L25.3178 39.7546C25.2762 39.7963 25.2346 39.7963 25.193 39.7963C25.1098 39.8378 25.0266 39.8378 24.985 39.8795C24.985 39.8795 24.985 39.8795 25.0266 39.8378C25.0682 39.7963 25.1098 39.7546 25.1098 39.6714C25.1098 39.6298 25.1098 39.5466 25.0682 39.505C25.0266 39.4634 24.985 39.4218 24.9018 39.4218C24.8602 39.4218 24.777 39.4218 24.7353 39.4634C24.6521 39.5882 24.5689 39.6714 24.4441 39.7963C24.4025 39.8378 24.4025 39.8795 24.4025 39.9211C24.1945 39.9211 24.0281 39.9627 23.8201 39.9627C23.8617 39.9211 23.9033 39.8795 23.9449 39.8378C23.9865 39.7963 23.9865 39.7131 23.9865 39.6714C23.9865 39.6298 23.9449 39.5466 23.9033 39.505C23.8617 39.4634 23.8201 39.4634 23.7785 39.4634H23.7368C23.6536 39.4634 23.6536 39.505 23.6121 39.5466C23.5288 39.6714 23.4456 39.7546 23.3624 39.8795C23.3624 39.9211 23.3208 39.9627 23.3208 39.9627C22.988 39.9627 22.6968 40.0043 22.3639 40.0043C22.4471 39.9211 22.4887 39.8795 22.5719 39.7963C22.6551 39.7131 22.6551 39.5466 22.5719 39.4634C22.5303 39.4218 22.4471 39.3802 22.4055 39.3802C22.3639 39.3802 22.2807 39.3802 22.2391 39.4634C22.0727 39.6298 21.8647 39.8378 21.6983 40.0043C21.5318 40.0043 21.3238 40.0043 21.1574 40.0043C21.0326 40.0043 20.9494 40.0043 20.8246 40.0043C20.9078 39.9211 20.9494 39.8795 21.0326 39.7963C21.1158 39.7131 21.1158 39.5466 21.0326 39.4634C20.991 39.4218 20.9078 39.3802 20.8662 39.3802C20.8246 39.3802 20.7413 39.4218 20.6998 39.4634C20.5749 39.5882 20.4501 39.6714 20.3669 39.7963C20.2837 39.8795 20.2421 39.9211 20.1589 40.0043C19.8261 40.0043 19.4516 40.0043 19.1188 39.9627C19.1604 39.9211 19.202 39.8795 19.2436 39.8378C19.41 39.6714 19.5348 39.505 19.7013 39.3386C19.7845 39.2554 19.7845 39.089 19.7013 39.0058C19.6596 38.9642 19.5764 38.9226 19.5348 38.9226C19.4932 38.9226 19.41 38.9226 19.3684 39.0058C19.1188 39.297 18.8276 39.5882 18.6195 39.8795L18.6611 39.8378C18.6195 39.8795 18.6195 39.9211 18.5779 39.9211C18.3699 39.9211 18.1619 39.8795 17.9539 39.8795C17.9123 39.8795 17.8707 39.8795 17.8707 39.8795C17.9123 39.7963 17.9955 39.7546 18.0371 39.6714C18.2035 39.4634 18.3283 39.297 18.4947 39.089C18.3283 39.1306 18.2867 38.9641 18.1619 38.9226C18.1203 38.8809 18.0787 38.8809 18.0371 38.8809C17.9539 38.8809 17.8707 38.9226 17.8291 39.0058C17.6626 39.2138 17.5378 39.4218 17.3714 39.6298C17.3298 39.7131 17.2466 39.7963 17.205 39.8795C17.1634 39.8378 17.1218 39.7963 17.0802 39.7546C16.997 39.6298 16.9138 39.4634 16.8306 39.3386C16.9138 39.2554 16.9554 39.2138 17.0386 39.1306C17.1634 39.0058 17.2882 38.8393 17.3714 38.7145C17.4546 38.6313 17.413 38.4649 17.2882 38.3817C17.2466 38.3401 17.205 38.3401 17.1634 38.3401C17.0802 38.3401 16.997 38.3817 16.9554 38.4649C16.8722 38.5897 16.7473 38.7145 16.6225 38.8809C16.6225 38.8393 16.6225 38.8393 16.6225 38.7977C16.5809 38.6313 16.5393 38.4649 16.5393 38.2569C16.6641 38.132 16.7057 38.0905 16.7473 38.0073C16.7889 37.9656 16.8306 37.9241 16.8306 37.8408C16.8306 37.7992 16.8306 37.716 16.7889 37.6744C16.7473 37.6328 16.7057 37.5912 16.6225 37.5912C16.5809 37.5912 16.5809 37.6328 16.5393 37.6328C16.5393 37.508 16.4977 37.3832 16.5393 37.2584C16.5809 37.2168 16.6225 37.2168 16.6641 37.1752C17.0386 37.0503 17.4546 36.9671 17.8707 36.9256C18.2867 36.8839 18.6611 36.8423 19.0772 36.8423C19.2436 36.8423 19.41 36.7175 19.41 36.5095V36.4679C20.1173 36.4263 20.783 36.3847 21.4902 36.3847C22.1559 36.3847 22.8216 36.3431 23.4872 36.3847C23.8201 36.3847 24.1529 36.3847 24.4857 36.4263C24.6938 36.4263 25.0266 36.4263 25.3178 36.4679ZM23.7368 34.6789C23.7368 34.7205 23.6953 34.7205 23.6953 34.7621C23.6536 34.8453 23.6536 34.8869 23.6536 34.9701C23.6536 35.1365 23.6536 35.303 23.6536 35.4694C23.6536 35.5526 23.6953 35.6358 23.7368 35.719C23.7368 35.719 23.7785 35.719 23.7785 35.7606C23.5288 35.7606 23.3208 35.7606 23.0712 35.8022C22.1143 35.8438 21.1574 35.8854 20.2005 35.9271C19.7428 35.9686 19.2436 35.9686 18.7859 36.0103C18.7027 36.0103 18.6611 36.0103 18.5779 36.0103C18.5779 35.9686 18.5779 35.9271 18.5779 35.8854C18.5363 35.6774 18.4947 35.4694 18.4531 35.2614C18.4115 35.1782 18.4115 35.0533 18.3699 34.9701C18.5779 34.9701 18.7859 34.9701 18.994 34.9701C19.8677 34.9701 20.6998 34.8869 21.5734 34.8453C22.0311 34.8037 22.4471 34.8037 22.9048 34.7621C23.1544 34.7205 23.4456 34.6789 23.7368 34.6789ZM25.4426 33.5556L25.4842 33.514C25.4842 33.5556 25.4426 33.5556 25.4426 33.5556ZM23.2376 30.2688C23.7785 30.2688 24.3609 30.2688 24.9018 30.3104C24.985 30.3104 25.0266 30.3104 25.1098 30.352H25.1514C25.1514 30.352 25.193 30.352 25.193 30.3936C25.193 30.352 25.1514 30.352 25.1514 30.3104C25.193 30.352 25.193 30.3936 25.2346 30.4352C25.2762 30.4768 25.2762 30.5185 25.3178 30.5601C25.401 30.7681 25.4426 31.0177 25.4842 31.2257C25.5259 31.6002 25.5674 31.9746 25.5674 32.349C25.5674 32.7235 25.5674 33.0979 25.5258 33.4724C25.5258 33.514 25.5258 33.514 25.5258 33.5556V33.5972C25.4842 33.6388 25.4426 33.6388 25.401 33.6804C25.3594 33.722 25.2762 33.722 25.2346 33.722C25.2346 33.6388 25.2346 33.5972 25.193 33.5556C25.1514 33.514 25.0682 33.4724 25.0266 33.4724C24.985 33.4724 24.9018 33.4724 24.8602 33.5556C24.777 33.6804 24.6521 33.7636 24.5689 33.8884L24.5273 33.93C24.2777 33.9716 24.0281 34.0132 23.7785 34.0548C23.8201 34.0132 23.8617 33.9716 23.9033 33.93C23.9449 33.8884 23.9865 33.8468 23.9865 33.7636C23.9865 33.722 23.9865 33.6388 23.9033 33.5972C23.8617 33.5556 23.7785 33.514 23.7368 33.514C23.6953 33.514 23.6121 33.514 23.5704 33.5972C23.4456 33.722 23.3208 33.8468 23.2376 33.9716L23.196 34.0132C23.1544 34.0132 23.1544 34.0548 23.1544 34.0964C22.8216 34.138 22.4471 34.1796 22.1143 34.1796C22.2807 34.0548 22.4471 33.8884 22.5719 33.722C22.6551 33.6388 22.6551 33.514 22.5719 33.3892C22.5303 33.3475 22.4471 33.306 22.4055 33.306C22.3639 33.306 22.2807 33.306 22.2391 33.3475C22.0727 33.514 21.9063 33.6804 21.7398 33.8052C21.6566 33.8884 21.5734 33.9716 21.4902 34.0548C21.4486 34.0964 21.407 34.138 21.3654 34.1796C21.1574 34.1796 20.991 34.1796 20.783 34.1796C20.7413 34.1796 20.6581 34.1796 20.6166 34.1796C20.783 34.0132 20.9494 33.8468 21.1158 33.6804C21.199 33.5972 21.199 33.4308 21.1158 33.3475C21.0742 33.306 20.991 33.2643 20.9494 33.2643C20.9078 33.2643 20.8246 33.2643 20.783 33.306C20.6166 33.4724 20.4917 33.5972 20.3253 33.7636C20.2005 33.8884 20.0757 34.0132 19.9509 34.138C19.7428 34.138 19.4932 34.138 19.2852 34.138C19.2436 34.138 19.2436 34.138 19.202 34.138C19.3684 33.9716 19.4932 33.8052 19.6596 33.6804C19.7428 33.5972 19.7428 33.4308 19.6596 33.3475C19.6181 33.306 19.5348 33.2643 19.4932 33.2643C19.4516 33.2643 19.3684 33.2643 19.3268 33.306C19.1604 33.4724 19.0356 33.6388 18.8692 33.8052C18.7859 33.8884 18.7027 34.0132 18.5779 34.0964C18.3699 34.0964 18.1619 34.0964 17.9123 34.0548C17.8707 34.0548 17.8707 34.0548 17.8291 34.0548C17.9123 33.9716 17.9955 33.8884 18.0787 33.8052C18.2867 33.5972 18.4531 33.4308 18.6611 33.2228C18.7443 33.1395 18.7443 33.0147 18.6611 32.8899C18.6195 32.8483 18.5363 32.8067 18.4947 32.8067C18.4531 32.8067 18.3699 32.8067 18.3283 32.8483C18.1619 33.0147 17.9955 33.1811 17.8291 33.3475C17.7042 33.4724 17.5794 33.5972 17.4962 33.722C17.4546 33.6804 17.4546 33.6388 17.413 33.5972C17.3714 33.4724 17.3298 33.306 17.2882 33.1395H17.3298C17.3298 33.1395 17.3298 33.0979 17.3714 33.0979C17.4546 33.0147 17.4962 32.9731 17.5378 32.8899C17.7042 32.6819 17.8707 32.4739 18.0371 32.3075C18.0787 32.2658 18.0787 32.1826 18.0787 32.141C18.0787 32.0994 18.0371 32.0162 17.9955 32.0162C17.9539 31.9746 17.9123 31.9746 17.8707 31.9746H17.8291C17.7458 31.9746 17.7458 32.0162 17.7042 32.0578C17.5794 32.2243 17.4546 32.3907 17.2882 32.5571L17.2466 32.5987C17.0802 32.5155 17.0802 32.2658 17.0386 31.9746C17.1634 31.8498 17.2466 31.725 17.3714 31.6418C17.4546 31.5586 17.4546 31.4338 17.3714 31.309C17.3298 31.2673 17.2466 31.2257 17.205 31.2257C17.1634 31.2257 17.0802 31.2257 17.0386 31.2673C17.0386 31.1425 17.0386 31.0593 17.0386 30.9345V30.8929C17.0802 30.8929 17.0802 30.8513 17.1218 30.8513C17.2466 30.8097 17.413 30.7681 17.5794 30.7265C17.8291 30.6849 18.0371 30.6849 18.2867 30.6849C18.5779 30.6849 18.9108 30.6849 19.202 30.6849C19.3684 30.6849 19.5348 30.5601 19.5348 30.352C19.5764 30.352 19.6181 30.352 19.7013 30.352C20.2005 30.352 20.6581 30.352 21.1574 30.3104C21.199 30.352 21.2822 30.3936 21.3654 30.352C21.407 30.352 21.407 30.3104 21.4486 30.2688C21.4902 30.2688 21.4902 30.2688 21.5318 30.2688C22.0727 30.3104 22.6551 30.2688 23.2376 30.2688ZM21.3654 27.7726C21.3654 27.731 21.3654 27.731 21.3654 27.7726V27.7726ZM36.2597 33.6388C36.1349 33.6388 36.0101 33.6388 35.8853 33.6388C35.9685 33.5556 36.0517 33.4724 36.1349 33.3892C36.1765 33.3475 36.2181 33.306 36.2181 33.2228C36.2181 33.1395 36.2181 33.0979 36.1349 33.0563C36.0933 33.0147 36.0101 32.9731 35.9685 32.9731C35.9269 32.9731 35.8437 32.9731 35.8021 33.0563C35.6357 33.2228 35.4693 33.4308 35.3029 33.6388C35.3029 33.6388 35.3029 33.6388 35.3029 33.6804C35.0116 33.6804 34.7204 33.6804 34.4708 33.6388C34.4708 33.6388 34.4708 33.5972 34.5124 33.5972C34.5956 33.4724 34.7204 33.306 34.8036 33.1811C34.8868 33.0979 34.8452 32.9315 34.7204 32.8483C34.6788 32.8067 34.6372 32.8067 34.5956 32.8067C34.5124 32.8067 34.4291 32.8483 34.3876 32.9315C34.2627 33.1395 34.1379 33.3475 33.9715 33.5556V33.5972C33.8883 33.5972 33.8051 33.5972 33.7219 33.5972C33.6387 33.5972 33.5555 33.5556 33.4722 33.5556C33.389 33.5556 33.3474 33.514 33.2642 33.514C33.4722 33.2643 33.6803 33.0147 33.8467 32.7651C33.9299 32.6819 33.8883 32.5155 33.7635 32.4323C33.7219 32.3907 33.6803 32.3907 33.6387 32.3907C33.5555 32.3907 33.4722 32.4323 33.4306 32.5155C33.3058 32.6819 33.1394 32.8899 33.0146 33.0563C32.9314 33.1395 32.8898 33.2228 32.8066 33.3475L32.765 33.306C32.7234 33.2643 32.6402 33.1811 32.5986 33.1395C32.557 33.0563 32.5154 32.9731 32.4737 32.8899C32.4737 32.8899 32.4738 32.8483 32.4321 32.8483C32.4321 32.8483 32.4737 32.8483 32.4737 32.8067C32.4737 32.8067 32.4738 32.8483 32.4321 32.8483C32.4738 32.7651 32.5569 32.6819 32.6402 32.5987C32.765 32.4323 32.8898 32.3075 32.973 32.141C33.0562 32.0578 33.0146 31.8914 32.8898 31.8082C32.8482 31.7666 32.8066 31.7666 32.765 31.7666H32.7234C32.6402 31.7666 32.6402 31.8082 32.5986 31.8498C32.4737 31.9746 32.3905 32.141 32.2657 32.3075C32.2657 32.2658 32.2241 32.2243 32.2241 32.2243C32.1825 32.0578 32.1409 31.8498 32.1409 31.6834C32.0993 31.4754 32.0993 31.2673 32.0993 31.0177V30.9761C32.0993 30.9761 32.0993 30.9761 32.1409 30.9345C32.1825 30.9345 32.2241 30.8929 32.2657 30.8929C32.3905 30.8513 32.4737 30.8097 32.5986 30.8097C32.765 30.7681 32.9314 30.7681 33.0978 30.7265C33.1394 30.7265 33.181 30.6849 33.2226 30.6433C33.2642 30.6017 33.3058 30.56 33.3058 30.4768C33.5139 30.4768 33.7219 30.4352 33.9299 30.4352C34.1795 30.3936 34.4291 30.3936 34.6788 30.352C35.2196 30.2688 35.8021 30.2272 36.3429 30.1856C36.8838 30.144 37.3831 30.1024 37.9239 30.0608C38.1735 30.0608 38.4231 30.0608 38.6728 30.0192C38.964 30.0192 39.2552 30.0192 39.5465 30.0608C39.5881 30.0608 39.6713 30.1024 39.7129 30.1024C39.7129 30.1024 39.7545 30.1024 39.7545 30.144L39.7961 30.1856C39.8377 30.2272 39.8377 30.2688 39.8793 30.3104C39.9209 30.4352 39.9625 30.5185 39.9625 30.6433C39.9625 30.6849 39.9625 30.7265 40.0041 30.7681C40.0457 31.1009 40.0457 31.4754 40.0873 31.8082C40.0873 32.141 40.0873 32.4739 40.0457 32.8067C40.0457 32.8899 40.0041 32.9315 40.0041 33.0147C40.0041 33.0147 40.0041 33.0147 40.0041 33.0563L39.9625 33.0979C39.9209 33.1395 39.8793 33.1395 39.8377 33.1811C39.5881 33.306 39.2969 33.3475 39.0056 33.3892C39.1304 33.2643 39.2136 33.1395 39.3384 32.9731C39.3801 32.9315 39.3801 32.8483 39.3801 32.8067C39.3801 32.7651 39.3384 32.6819 39.2552 32.6403C39.2136 32.5987 39.172 32.5987 39.1304 32.5987H39.0888C39.0056 32.5987 38.964 32.6403 38.9224 32.7235C38.8392 32.8483 38.7144 33.0147 38.6312 33.1395C38.5896 33.2228 38.548 33.2643 38.5064 33.3475C38.4648 33.3892 38.4648 33.4308 38.4231 33.4724C38.0903 33.514 37.7991 33.514 37.4663 33.5556C37.5495 33.4724 37.5911 33.4308 37.6743 33.3475C37.7575 33.2643 37.7575 33.0979 37.6743 33.0147C37.6327 32.9731 37.5495 32.9315 37.5079 32.9315C37.4663 32.9315 37.3831 32.9315 37.3414 33.0147C37.2166 33.1395 37.0918 33.2643 36.9254 33.4308C36.8838 33.4724 36.8422 33.514 36.759 33.5972L36.7174 33.6388C36.5926 33.5972 36.4261 33.6388 36.2597 33.6388ZM35.7189 39.1722C35.8021 39.089 35.8437 39.0474 35.9269 38.9642C36.0101 38.8809 36.0101 38.7561 35.9269 38.6313C35.8853 38.5897 35.8021 38.5481 35.7605 38.5481C35.7189 38.5481 35.6357 38.5481 35.5941 38.5897C35.4693 38.7145 35.3861 38.7977 35.2612 38.9226C35.2196 38.9641 35.178 39.0058 35.178 39.0474C35.1364 39.089 35.1364 39.089 35.0948 39.1306C34.8452 39.1306 34.5956 39.1306 34.3459 39.1306C34.2627 39.1306 34.1795 39.1306 34.0963 39.1306C34.1795 39.0474 34.2627 38.9641 34.3459 38.8809C34.4291 38.7977 34.4291 38.6729 34.3459 38.5481C34.3043 38.5065 34.2211 38.4649 34.1795 38.4649C34.1379 38.4649 34.0547 38.4649 34.0131 38.5065C33.8467 38.6729 33.6803 38.8809 33.5139 39.0474C33.5139 39.0474 33.5139 39.0474 33.5555 39.0058C33.5555 39.0058 33.5555 39.0058 33.5139 39.0474C33.2642 39.0474 32.973 39.0058 32.7234 38.9642C32.8482 38.7977 32.973 38.6313 33.0978 38.5065C33.181 38.4233 33.1394 38.2569 33.0146 38.1737C32.973 38.132 32.9314 38.132 32.8898 38.132H32.8482C32.765 38.132 32.765 38.1737 32.7234 38.2153C32.6402 38.3401 32.5154 38.4649 32.4321 38.5897C32.3905 38.6313 32.3489 38.7145 32.3073 38.7561C32.2657 38.7145 32.2657 38.7145 32.2241 38.6729C32.1825 38.5897 32.1409 38.5481 32.0993 38.4649C32.0993 38.4233 32.0577 38.3817 32.0577 38.3401C32.0161 38.2569 32.0161 38.2153 32.0161 38.132C32.0577 38.0905 32.0993 38.0905 32.0993 38.0488C32.1409 38.0073 32.1825 37.9656 32.1825 37.8824C32.2657 37.7992 32.3073 37.6744 32.3905 37.5912C32.4737 37.508 32.4321 37.3416 32.3073 37.3C32.2657 37.2584 32.2241 37.2584 32.1825 37.2584C32.0993 37.2584 32.0161 37.3 31.9745 37.3416C31.9329 37.4248 31.8913 37.508 31.8081 37.5912C31.8081 37.508 31.7665 37.4664 31.7665 37.3832C31.7665 37.2168 31.7249 37.0503 31.7249 36.8839C31.7249 36.7175 31.6833 36.5511 31.7249 36.3847C31.7665 36.3847 31.8497 36.3431 31.8913 36.3431C31.9329 36.3431 31.9329 36.3431 31.9745 36.3431C32.5986 36.2599 33.2642 36.2599 33.8883 36.2599C34.0547 36.2599 34.1795 36.135 34.2211 35.9686C34.3043 35.9686 34.3876 35.9686 34.4708 35.9686C35.0532 35.9686 35.6357 35.9271 36.2597 35.9271C36.8422 35.9271 37.4246 35.8854 38.0071 35.8854C38.2984 35.8854 38.548 35.8854 38.8392 35.8854C39.1304 35.8854 39.3801 35.8854 39.6713 35.9271V35.9686C39.7129 36.0518 39.7129 36.0935 39.7129 36.1767C39.7129 36.2183 39.7129 36.2599 39.7129 36.3015V36.2599C39.7545 36.5927 39.7129 36.8839 39.7129 37.2168C39.7129 37.508 39.6713 37.7992 39.6297 38.0905C39.5881 38.3817 39.5465 38.6729 39.4216 38.9642C39.3384 39.0058 39.2136 39.0058 39.1304 39.0474C38.8392 39.089 38.548 39.089 38.2151 39.089C38.2567 39.0058 38.2984 38.8809 38.2151 38.7977C38.1735 38.7561 38.0903 38.7145 38.0487 38.7145C38.0071 38.7145 37.9239 38.7145 37.8823 38.7977C37.7991 38.8809 37.7575 38.9641 37.6743 39.0474C37.6743 39.0474 37.6743 39.0474 37.6327 39.089V39.1306C37.4663 39.1306 37.3414 39.1306 37.175 39.1306C37.2582 39.0474 37.2582 38.9226 37.175 38.8393C37.1334 38.7977 37.0502 38.7561 37.0086 38.7561C36.967 38.7561 36.8838 38.7561 36.8422 38.7977C36.759 38.8809 36.7174 38.9226 36.6342 39.0058C36.5926 39.0474 36.5926 39.089 36.551 39.089C36.3429 39.089 36.1765 39.089 35.9685 39.089C35.9269 39.1722 35.8021 39.1722 35.7189 39.1722Z" fill="black"/>
<path d="M37.6326 31.8495C37.6326 31.8911 37.6326 31.9327 37.6326 31.9743C37.6326 32.0159 37.6743 32.0575 37.6743 32.1407C37.7159 32.1824 37.7159 32.2239 37.7575 32.2656C37.8407 32.3488 37.9239 32.3903 38.0071 32.432C38.0903 32.4736 38.1319 32.4736 38.2151 32.4736C38.2983 32.4736 38.3815 32.4736 38.5064 32.4736C38.5479 32.4736 38.6311 32.4736 38.6728 32.432C38.7144 32.432 38.756 32.3903 38.8392 32.3903C38.8808 32.3488 38.9224 32.3488 38.964 32.3071C39.0056 32.2656 39.0472 32.2239 39.0888 32.1823C39.1304 32.1407 39.172 32.0991 39.172 32.0159C39.2136 31.9743 39.2136 31.9327 39.2136 31.8911C39.2552 31.7663 39.2136 31.6415 39.172 31.4751C39.1304 31.3503 39.0888 31.267 39.0056 31.1838C38.964 31.1422 38.964 31.1006 38.9224 31.059C38.8808 31.0174 38.8392 31.0174 38.8392 30.9758C38.756 30.9342 38.6728 30.8926 38.5896 30.8926C38.5479 30.8926 38.5479 30.8926 38.5064 30.8926H38.4647C38.3815 30.8926 38.3399 30.9342 38.2567 30.9342C38.0903 31.0174 37.9239 31.1006 37.7991 31.2254C37.7575 31.267 37.7159 31.3086 37.6743 31.3918C37.6326 31.4335 37.5911 31.4751 37.5911 31.5167C37.4662 31.6415 37.5079 31.7663 37.6326 31.8495ZM38.5896 31.3918C38.5479 31.3918 38.5479 31.3918 38.5896 31.3918V31.3918ZM38.2151 31.5167C38.2983 31.4751 38.3399 31.4335 38.4232 31.3918C38.4647 31.3918 38.4647 31.3918 38.5064 31.3918H38.5479C38.5479 31.3918 38.5479 31.3918 38.5896 31.3918H38.6311L38.6728 31.4335C38.7144 31.4751 38.756 31.5583 38.756 31.5999C38.756 31.6415 38.7976 31.6831 38.7976 31.7247C38.7976 31.7247 38.7976 31.7247 38.7976 31.7663C38.7976 31.8079 38.7976 31.8495 38.756 31.8495C38.756 31.8495 38.756 31.8495 38.7144 31.8911L38.6728 31.9327C38.6311 31.9327 38.5896 31.9743 38.5479 31.9743C38.5064 31.9743 38.5064 31.9743 38.4647 31.9743C38.4232 31.9743 38.3815 31.9743 38.3399 31.9743C38.2983 31.9743 38.2567 31.9743 38.2151 31.9327L38.1735 31.8911C38.1735 31.8911 38.1735 31.8911 38.1319 31.8911C38.1319 31.8911 38.1319 31.8911 38.1319 31.8495C38.1319 31.8079 38.1319 31.7247 38.1319 31.6831C38.1319 31.6415 38.1319 31.5999 38.0903 31.5583C38.1319 31.5583 38.1735 31.5583 38.2151 31.5167ZM37.175 37.5077C37.175 37.5493 37.175 37.5909 37.1334 37.5909C37.1334 37.6741 37.1334 37.7157 37.1334 37.7989C37.1334 37.8405 37.1334 37.9237 37.175 37.9654C37.175 38.0069 37.2166 38.0486 37.2582 38.1318C37.2998 38.215 37.4247 38.2982 37.5079 38.3398C37.5911 38.3814 37.7159 38.423 37.7991 38.423C37.8407 38.423 37.9239 38.423 37.9655 38.423C38.0071 38.423 38.0487 38.3814 38.1319 38.3814C38.1735 38.3398 38.2151 38.3398 38.2567 38.2982C38.2983 38.2566 38.3815 38.215 38.4232 38.1318C38.5064 38.0486 38.5479 37.9237 38.5896 37.8405C38.5896 37.7989 38.6311 37.7157 38.6311 37.6741C38.6311 37.5909 38.6311 37.5077 38.6311 37.4661C38.6311 37.3829 38.5896 37.2997 38.5479 37.1749C38.5064 37.0916 38.4647 37.0084 38.3815 36.8836C38.3399 36.842 38.2983 36.8004 38.2567 36.8004C38.2151 36.7588 38.1735 36.7588 38.1319 36.7172C38.0487 36.6756 37.9655 36.6756 37.9239 36.6756C37.8823 36.6756 37.8823 36.6756 37.8407 36.6756C37.7575 36.6756 37.7159 36.6756 37.6326 36.7172C37.5911 36.7172 37.5079 36.7588 37.4662 36.8004C37.4247 36.842 37.383 36.842 37.2998 36.8836C37.2582 36.8836 37.2166 36.9252 37.2166 36.9669C37.1334 37.0501 37.0502 37.1333 36.967 37.2165C36.8838 37.2997 36.9254 37.4661 37.0502 37.5077C37.0918 37.5077 37.1334 37.5493 37.175 37.5077ZM37.9239 37.1333C37.9239 37.1749 37.9239 37.1749 37.9239 37.1333V37.1333ZM37.5494 37.2997C37.6326 37.2581 37.7159 37.2165 37.7991 37.1749C37.8407 37.1749 37.8823 37.1749 37.8823 37.1333H37.9239H37.9655C37.9655 37.1333 37.9655 37.1333 38.0071 37.1333C38.0487 37.1333 38.0487 37.1749 38.0903 37.2165C38.0903 37.2581 38.1319 37.2581 38.1319 37.2997C38.1319 37.3413 38.1735 37.3829 38.1735 37.4245C38.1735 37.4661 38.1735 37.5077 38.1735 37.5909C38.1735 37.6325 38.1319 37.7157 38.1319 37.7573C38.1319 37.7989 38.0903 37.7989 38.0903 37.8405C38.0487 37.8821 38.0487 37.9237 38.0071 37.9237C38.0071 37.9237 37.9655 37.9237 37.9655 37.9654H37.9239C37.8823 37.9654 37.8407 37.9654 37.7991 37.9654H37.7575C37.7575 37.9654 37.7159 37.9654 37.7159 37.9237L37.6743 37.8821C37.6743 37.8821 37.6743 37.8405 37.6326 37.8405C37.6326 37.7989 37.6326 37.7989 37.6326 37.7573C37.6326 37.6741 37.6326 37.5909 37.6743 37.5077C37.6743 37.4245 37.6326 37.3413 37.5494 37.2997C37.5079 37.3413 37.5079 37.2997 37.5494 37.2997Z" fill="black"/>
<path d="M22.7384 32.6819C22.78 32.7651 22.8216 32.8483 22.8632 32.9315C22.9048 32.9732 22.9464 33.0147 22.9464 33.0147C22.988 33.0564 23.0296 33.0564 23.0712 33.098C23.1128 33.1396 23.1544 33.1396 23.196 33.1396C23.2376 33.1396 23.2376 33.1396 23.2792 33.1396C23.3209 33.1396 23.3624 33.1396 23.4456 33.1396C23.4873 33.1396 23.5289 33.098 23.6121 33.098C23.6537 33.0564 23.7369 33.0564 23.7785 33.0147C23.8617 32.9732 23.9449 32.89 24.0281 32.8067C24.0697 32.7651 24.1113 32.6819 24.1529 32.6403C24.1945 32.5987 24.1945 32.5155 24.2362 32.4739C24.2777 32.3907 24.2777 32.3491 24.2777 32.2659C24.2777 32.1827 24.2777 32.0995 24.2777 31.9747C24.2777 31.7666 24.1945 31.5586 24.0281 31.4754C23.9865 31.4338 23.9449 31.4338 23.9033 31.3922C23.8617 31.3506 23.8201 31.3506 23.7785 31.3506C23.7369 31.3506 23.6953 31.3506 23.6953 31.3506C23.6121 31.3506 23.5289 31.3506 23.4456 31.3922C23.3624 31.4338 23.2376 31.4754 23.1544 31.5586C23.1128 31.6002 23.0296 31.6418 22.988 31.6834C22.9464 31.725 22.9048 31.7666 22.8632 31.8082C22.8216 31.8498 22.78 31.8915 22.7384 31.9747C22.6968 32.0579 22.7384 32.1411 22.8216 32.2243C22.7384 32.2659 22.6968 32.3491 22.6968 32.4323C22.6968 32.5155 22.6968 32.5571 22.6968 32.6403C22.6968 32.5571 22.6968 32.5987 22.7384 32.6819ZM23.6953 31.725H23.6537C23.6537 31.725 23.6537 31.725 23.6953 31.725ZM23.1544 32.0162C23.1544 32.0579 23.1128 32.0579 23.1128 32.0579C23.1544 32.0579 23.1544 32.0162 23.1544 32.0162ZM23.1128 32.0579C23.1544 32.0162 23.196 31.9747 23.2792 31.933C23.2792 31.933 23.2376 31.933 23.2376 31.9747L23.2792 31.933C23.3624 31.8915 23.4456 31.8082 23.5705 31.7666C23.6121 31.7666 23.6121 31.7666 23.6537 31.725H23.6953C23.6953 31.725 23.6953 31.725 23.7369 31.725C23.7369 31.725 23.7369 31.725 23.7785 31.725L23.8201 31.7666C23.8201 31.7666 23.8201 31.8082 23.8617 31.8082C23.8617 31.8498 23.8617 31.8498 23.8617 31.8915C23.8617 31.933 23.8617 31.9747 23.8617 32.0162C23.8617 32.0579 23.8617 32.0579 23.8617 32.0995C23.8617 32.1411 23.8201 32.2243 23.8201 32.2659C23.7785 32.3075 23.7785 32.3491 23.7369 32.3907C23.6953 32.4323 23.6537 32.4739 23.6121 32.5155C23.5705 32.5155 23.5705 32.5571 23.5289 32.5571C23.4873 32.5571 23.4873 32.5571 23.4456 32.5571H23.4041H23.3624C23.3624 32.5571 23.3624 32.5571 23.3209 32.5571C23.3209 32.5571 23.3209 32.5155 23.2792 32.5155C23.2792 32.5155 23.2792 32.4739 23.2376 32.4739C23.2376 32.4323 23.2376 32.3907 23.2376 32.3907C23.2376 32.3491 23.2376 32.3491 23.2376 32.3075C23.2376 32.2243 23.196 32.1411 23.1128 32.0579C23.1128 32.0995 23.1128 32.0995 23.1128 32.0579Z" fill="black"/>
<path d="M22.9469 37.3835C22.9053 37.4251 22.8637 37.5083 22.8637 37.5499C22.822 37.6331 22.8637 37.7579 22.9885 37.7995C22.9469 37.8827 22.9053 37.9659 22.8637 38.0492C22.822 38.1324 22.822 38.2156 22.822 38.2988C22.822 38.382 22.822 38.4236 22.822 38.5068C22.822 38.5484 22.822 38.6316 22.8637 38.6732C22.8637 38.7148 22.9053 38.7564 22.9469 38.8397C22.9885 38.8812 22.9885 38.9229 23.0301 38.9644C23.0301 38.9644 23.0717 39.0061 23.1133 39.0061C23.1549 39.0477 23.1965 39.0477 23.2381 39.0893C23.3213 39.1309 23.4045 39.1309 23.5293 39.1725C23.5709 39.1725 23.6125 39.1725 23.6541 39.1725C23.6958 39.1725 23.6958 39.1725 23.7373 39.1309C23.779 39.1309 23.8205 39.0893 23.8622 39.0477C23.9038 39.0061 23.9454 39.0061 23.987 38.9644C24.0286 38.9229 24.0702 38.8812 24.1118 38.8397C24.1534 38.798 24.195 38.7148 24.2366 38.6732C24.2782 38.59 24.3198 38.5068 24.3614 38.4236C24.403 38.2988 24.4446 38.1324 24.4446 38.0076C24.4446 37.8827 24.4446 37.7579 24.403 37.6331C24.403 37.5915 24.3614 37.5499 24.3198 37.5083C24.2782 37.4667 24.2782 37.4251 24.2366 37.3835C24.195 37.3419 24.1534 37.3003 24.1118 37.3003C24.0702 37.2586 23.987 37.2171 23.9038 37.1754C23.8622 37.1754 23.8205 37.1339 23.779 37.1339C23.7373 37.1339 23.6958 37.1339 23.6541 37.1339H23.6125C23.4877 37.1339 23.3629 37.1754 23.2381 37.2587C23.0717 37.2587 22.9885 37.3419 22.9469 37.3835ZM23.4461 38.6732H23.4877C23.4877 38.6732 23.4877 38.6732 23.4461 38.6732ZM23.4877 38.6732C23.4877 38.6316 23.4877 38.6316 23.4877 38.6732V38.6732ZM23.4877 38.6316C23.5293 38.6316 23.5293 38.6316 23.4877 38.6316V38.6316ZM23.6541 37.5915C23.6125 37.5915 23.6125 37.5915 23.6541 37.5915V37.5915ZM23.4045 37.5915C23.4461 37.5915 23.4461 37.5915 23.4877 37.5915C23.5293 37.5915 23.5709 37.5915 23.6125 37.5915H23.6541L23.6958 37.6331L23.7373 37.6747C23.7373 37.7163 23.779 37.7163 23.779 37.7579C23.779 37.7995 23.8205 37.8411 23.8205 37.8827C23.8205 37.9659 23.8205 38.0075 23.8205 38.0908V38.1324C23.8205 38.2156 23.779 38.2572 23.7373 38.2988C23.6958 38.3404 23.6541 38.4236 23.6125 38.4652L23.5709 38.5068C23.5293 38.5484 23.5293 38.5484 23.4877 38.59C23.4877 38.59 23.4461 38.59 23.4461 38.6316H23.4045H23.3629C23.3213 38.6316 23.3213 38.6316 23.2797 38.59L23.2381 38.5484C23.2381 38.5484 23.2381 38.5484 23.1965 38.5068C23.1965 38.5068 23.1965 38.4652 23.1549 38.4652C23.1549 38.4236 23.1549 38.4236 23.1549 38.382C23.1549 38.3404 23.1549 38.3404 23.1549 38.2988C23.1549 38.2156 23.1549 38.174 23.1965 38.1324C23.1965 38.0908 23.2381 38.0492 23.2381 38.0076V37.9659C23.2381 37.9659 23.2381 37.9659 23.2381 38.0076C23.2381 38.0076 23.2381 37.9659 23.2797 37.9659C23.3213 37.9243 23.3213 37.8411 23.3213 37.7995C23.3213 37.7579 23.2797 37.6747 23.2381 37.6747C23.2381 37.6747 23.2381 37.6747 23.1965 37.6747C23.1965 37.6747 23.2381 37.6747 23.2381 37.6331C23.3213 37.6331 23.3629 37.6331 23.4045 37.5915ZM17.4967 33.0566C17.4551 33.0566 17.4551 33.0566 17.4967 33.0566V33.0566Z" fill="black"/>
</g>
<defs>
<clipPath id="clip0_5251_9688">
<rect width="27" height="26.1694" fill="white" transform="translate(15 15)"/>
</clipPath>
</defs>
</svg>
