<svg width="56" height="56" viewBox="0 0 56 56" fill="none" xmlns="http://www.w3.org/2000/svg">
<path opacity="0.2" d="M27.8497 48.7375C39.3854 48.7375 48.737 39.3859 48.737 27.8502C48.737 16.3145 39.3854 6.96289 27.8497 6.96289C16.314 6.96289 6.9624 16.3145 6.9624 27.8502C6.9624 39.3859 16.314 48.7375 27.8497 48.7375Z" fill="#FF8800"/>
<path d="M27.8497 48.7375C39.3854 48.7375 48.737 39.3859 48.737 27.8502C48.737 16.3145 39.3854 6.96289 27.8497 6.96289C16.314 6.96289 6.9624 16.3145 6.9624 27.8502C6.9624 39.3859 16.314 48.7375 27.8497 48.7375Z" stroke="#FF8800" stroke-width="2.9839" stroke-miterlimit="10"/>
<path d="M36.8962 33.0703C35.9786 34.6574 34.6597 35.9751 33.0718 36.8912C31.4839 37.8073 29.683 38.2896 27.8498 38.2896C26.0166 38.2897 24.2156 37.8074 22.6278 36.8913C21.0399 35.9752 19.7209 34.6575 18.8033 33.0705" stroke="#FF8800" stroke-width="2.9839" stroke-linecap="round" stroke-linejoin="round"/>
<path d="M21.136 23.4986C21.136 24.1166 20.635 24.6176 20.017 24.6176C19.3991 24.6176 18.8981 24.1166 18.8981 23.4986C18.8981 22.8806 19.3991 22.3796 20.017 22.3796C20.635 22.3796 21.136 22.8806 21.136 23.4986Z" fill="#FF8800" stroke="#FF8800" stroke-width="2.9839"/>
<path d="M36.8014 23.4986C36.8014 24.1166 36.3004 24.6176 35.6824 24.6176C35.0645 24.6176 34.5635 24.1166 34.5635 23.4986C34.5635 22.8806 35.0645 22.3796 35.6824 22.3796C36.3004 22.3796 36.8014 22.8806 36.8014 23.4986Z" fill="#FF8800" stroke="#FF8800" stroke-width="2.9839"/>
</svg>
