<svg width="57" height="56" viewBox="0 0 57 56" fill="none" xmlns="http://www.w3.org/2000/svg">
<path opacity="0.2" d="M19.8212 34.8125C26.0697 34.8125 31.1351 29.7471 31.1351 23.4985C31.1351 17.25 26.0697 12.1846 19.8212 12.1846C13.5726 12.1846 8.5072 17.25 8.5072 23.4985C8.5072 29.7471 13.5726 34.8125 19.8212 34.8125Z" fill="#0F9918"/>
<path d="M19.8212 34.8125C26.0697 34.8125 31.1351 29.7471 31.1351 23.4985C31.1351 17.25 26.0697 12.1846 19.8212 12.1846C13.5726 12.1846 8.5072 17.25 8.5072 23.4985C8.5072 29.7471 13.5726 34.8125 19.8212 34.8125Z" stroke="#0F9918" stroke-width="2.9839" stroke-miterlimit="10"/>
<path d="M34.4882 12.6057C36.0443 12.1672 37.6763 12.0674 39.2743 12.3128C40.8723 12.5582 42.3992 13.1432 43.7521 14.0284C45.1049 14.9136 46.2524 16.0784 47.1172 17.4444C47.982 18.8104 48.544 20.3459 48.7654 21.9474C48.9868 23.5489 48.8624 25.1792 48.4007 26.7286C47.9389 28.278 47.1505 29.7105 46.0885 30.9295C45.0266 32.1485 43.7157 33.1258 42.2442 33.7956C40.7727 34.4653 39.1748 34.812 37.5581 34.8121" stroke="#0F9918" stroke-width="2.9839" stroke-linecap="round" stroke-linejoin="round"/>
<path d="M4.15442 42.9491C5.92143 40.4357 8.26724 38.3843 10.9938 36.9681C13.7204 35.552 16.7477 34.8126 19.8201 34.8125C22.8925 34.8124 25.9198 35.5515 28.6465 36.9675C31.3732 38.3834 33.7192 40.4346 35.4864 42.9479" stroke="#0F9918" stroke-width="2.9839" stroke-linecap="round" stroke-linejoin="round"/>
<path d="M37.5582 34.8125C40.6309 34.8103 43.6589 35.5485 46.3858 36.9646C49.1127 38.3808 51.4582 40.4331 53.2238 42.9479" stroke="#0F9918" stroke-width="2.9839" stroke-linecap="round" stroke-linejoin="round"/>
</svg>
